<?xml version="1.0" encoding="utf-8"?>
<!-- Generator: Adobe Illustrator 23.0.3, SVG Export Plug-In . SVG Version: 6.00 Build 0)  -->
<svg version="1.1" xmlns="http://www.w3.org/2000/svg" xmlns:xlink="http://www.w3.org/1999/xlink" x="0px" y="0px"
	 viewBox="0 0 1799.6 1200.87" style="enable-background:new 0 0 1799.6 1200.87;" xml:space="preserve">
<style type="text/css">
	.st0{fill:#E3E5FC;}
	.st1{fill:#D4A79A;}
	.st2{fill:#EAC2AB;}
	.st3{fill:#4B369D;}
	.st4{fill:#F3AA02;}
	.st5{fill:#FDC510;}
	.st6{fill:#5A54FF;}
	.st7{fill:#D7384E;}
	.st8{fill:#F44E4E;}
	.st9{fill:#978CFF;}
	.st10{fill:#A7ADFF;}
	.st11{fill:#FFFFFF;}
	.st12{fill:#FFD592;}
</style>
<g id="Nature">
	<ellipse id="Ground" class="st0" cx="905.98" cy="999.42" rx="480.47" ry="18.72"/>
</g>
<g id="Characters">
	<g id="Man">
		<path id="Arm_1_" class="st1" d="M1335.62,380.04c-31.4-3.17-60.96-12.29-88.38-28.9c-16.07-9.73-34.44-22.36-48.89-34.29
			c-29.91-24.68-58.98-46.66-87.68-72.73c-0.3-0.27-4.3-3.45-4.18-3.81c0,0-5.62,15.92-5.62,15.93
			c27.84,24.11,54.53,49.53,82.8,73.15c39.79,33.23,87.9,65.13,141.49,69.33C1335.99,399.57,1335.62,380.04,1335.62,380.04z"/>
		<g id="Head">
			<path id="Neck" class="st1" d="M1341.53,337.43l0.41,45.48l34.9,15.28c0,0-19.96-32.2-15.1-59.86
				C1366.6,310.67,1341.53,337.43,1341.53,337.43z"/>
			<path id="Face" class="st2" d="M1313.94,243.17c0,0-8.19,9.9-2.05,41.66c6.14,31.76,17.2,59.14,26.75,57.67
				c26.42-4.06,36.43-22.16,46.22-37.64c12-18.98-7.98-67.48-7.98-67.48l-20.38-12.2L1313.94,243.17z"/>
			<path id="Hair" class="st3" d="M1286.31,233.54c-5.5-18.74,0.06-40.26,16.51-51.4c1.88-1.27,3.98-2.44,6.25-2.41
				c10.16,0.14,5.34,22.23,22.2,20.83c10.97-0.91,19.72-8.75,30.56-9.83c13.74-1.36,24.38,5.86,32.5,16.3
				c2.42,3.11,19.33,27.86,10.56,29.55c27.22-5.25,1.28,60.16-4.78,68.98c-4.83,7.02-13.94,10.3-21.56,7.95
				c2.67-6.43,5.33-13,6.07-20c0.75-7,11.45-38.28-22.79-46.67c-24.35-5.96-49.15,21.08-70.46-3.44
				C1289.13,240.82,1287.45,237.41,1286.31,233.54z"/>
			<path id="Ear" class="st2" d="M1385.6,270.67c0,0,10.13-10.47,8.33,6.12c-1.8,16.59-10.66,19.63-10.66,19.63L1385.6,270.67z"/>
		</g>
		<g id="Leg_1_">
			<path id="Skin_1_" class="st1" d="M1435.63,908.07l20.94,54.98l19.1-5.11l-25.26-56.07
				C1450.41,901.88,1439.58,903.17,1435.63,908.07z"/>
			<path id="Shoe_1_" class="st4" d="M1407.63,1014.32c0.68,1.14,7.44,0.68,8.45,0.69c10.43,0.15,26.46,0.91,35.43-5.12
				c8.74-5.88,14.36-15.98,22.08-23.06c5.43-4.98,12.36-8,18.78-11.53c7.09-3.9-7.33-36.24-15.93-31.01
				c-6.96,4.24-3.54,15.96-21.29,14.44c-15.21-1.31-5.55,20.41-23.24,33.35C1416.27,1003.52,1400.17,1001.83,1407.63,1014.32z"/>
			<path id="Leg_3_" class="st3" d="M1377.91,704.84c10.69,52.89,30.57,101.47,59.03,146.71c13.88,22.07,18.8,28.6,33.13,50.32
				c20.44,30.98-34.71,49.96-50.56,54.69c-10.38,3.1-25.97,3.31-25.63-5.73c0.1-2.66,1.83-5.2,3.24-7.71
				c12.84-22.93-0.12-47.17-10.47-68.69c-31.03-64.51-36.51-79.81-61.49-146.7c-9.51-25.47-14.32-111.92-16.64-139.5
				c-1.42-16.88,12.8-86.51,42.04-66.96c18.2,12.17,10.06,55.02,8.84,72.32c-0.84,11.96-2.64,24.98-0.41,37.16
				C1363.58,655.77,1372.86,679.85,1377.91,704.84z"/>
		</g>
		<g id="Leg">
			<path id="Skin" class="st2" d="M1370.21,929.83l-13.01,59.19l19.34,6.38l9.91-62.57
				C1386.44,932.84,1376.39,927.83,1370.21,929.83z"/>
			<path id="Shoe" class="st5" d="M1278,1012.34c0,0,14.47,4.94,42.21,7c27.74,2.06,58.7,3.09,64.32-1.03
				c5.63-4.12,9.25-39.11,0-39.11c-9.25,0-12.84,13.38-29.15,1.44c-13.97-10.23-25.13,9.06-49.45,14.2
				C1281.61,999.99,1271.76,1002.05,1278,1012.34z"/>
			<path id="Leg_2_" class="st6" d="M1325.59,953c0.93-2.17,3.37-3.79,5.49-5.48c19.37-15.44,14.64-38.99,11.54-59.57
				c-7.35-48.82,8.2-98.17,3.46-146.86c-6.77-69.53-1.91-95.49-12.8-141.95c-3.96-16.88-9.42-42.98,16.69-38.04
				c12.37,2.34,24.58,1.88,36.91-0.28c6.49-1.14-0.13-3.25,6.49-1.14c22.55,7.2,20.77,28.58,18.82,49.41
				c-2.89,30.84-4.7,73.2-6.19,104.52c-2.12,44.4-9.51,88.85-4.24,132.91c2.58,21.59,5.58,43.12,8.46,64.67
				c1.68,12.57,12.19,40.11,5.14,51.49c-9.68,15.62-52.81,2.38-67.22,2.03C1337.31,964.43,1322.43,960.37,1325.59,953z"/>
		</g>
		<g id="Body">
			<path class="st7" d="M1318.3,464.56c6.54-26.54-0.56-71.18,18.15-90.87c1.92-2.02,3.77-4.57,6.49-5.16
				c48.54-10.53,51.22,13.49,61.32,30.22c10.12,16.75-3.64,30.09,1.31,48.87c5.62,21.35,4.49,43.55,4.89,65.59
				c0.25,13.42-1.57,20-0.81,33.44c0.53,9.38-0.1,16.3,2.04,25.45c1.42,6.08,11.51,27.3,9.19,33.49c-1.84,4.9-10.26,3.05-14.4,3.19
				c-16.01,0.53-21.08,0.45-35.32-6.58c-13.01-6.43-63.15,8.06-78.15,6.82c-7.45-0.62,10.26-36.7,13.63-50.24
				c7.99-32.09,4.05-49.45,7.36-72.11C1315.07,479.32,1316.49,471.92,1318.3,464.56z"/>
			<path class="st7" d="M1342.94,368.53c0,0-12.84,11.61-45.02-3.03l-10.64,33.25c0,0,31.09,14.88,45.9,3.63
				C1345.94,392.7,1342.6,369.2,1342.94,368.53z"/>
		</g>
		<path id="Arm" class="st2" d="M1403.44,509.64c-7.49,19.67-101.94,37.77-147.94,33.8c-11.27-0.97-23.14-2.41-30.7,6.75
			c5.38,2.61,9.42,0.95,15.23,2.02c-6.9,6.15-13.8,12.31-20.7,18.46c-2.13,1.9-4.49,4.83-3.24,7.5c0.92,1.98,3.32,2.44,5.35,2.41
			c13.39-0.21,24.62-10.71,37.35-15.23c15.69-5.57,28.19-3.86,43.95-6.58c106.73-18.42,130.44-21.61,123.65-87.54
			c-5.16-50.12-15.18-57.94-29.67-73.75c-2.3-2.51-6.44-4.95-8.65-2.37c-1.1,1.29-0.96,3.21-0.66,4.88
			c1.7,9.4,6.43,17.91,10.24,26.67C1406.99,448.16,1409.9,492.69,1403.44,509.64z"/>
		<path id="Body_1_" class="st8" d="M1388.04,438.33c0,0-29.07-79.68-5.13-68.37c23.76,11.23,46.82,61.91,46.82,61.91l-39.58,16.83
			L1388.04,438.33z"/>
	</g>
</g>
<g id="UI">
	<g id="Cards">
		<g>
			<g>
				<path class="st9" d="M345.78,748.73c2.76,22.5,28.25,38.05,56.65,34.57l688.02-84.46c28.4-3.49,49.37-24.75,46.61-47.24
					l-5.18-42.17L340.6,706.55L345.78,748.73z"/>
				<path class="st9" d="M1096.97,325.07c-3.4-27.73-29.42-47.56-57.82-44.07l-688.02,84.46c-28.4,3.49-48.84,29.02-45.44,56.75
					l14.51,118.21l791.28-97.13L1096.97,325.07z"/>
				
					<rect x="327.44" y="491.22" transform="matrix(0.9925 -0.1218 0.1218 0.9925 -64.6388 92.7445)" class="st3" width="797.22" height="167.39"/>
			</g>
			<circle class="st9" cx="408.62" cy="475.57" r="43.35"/>
			<path class="st9" d="M1035.23,556.32L923.7,570.01c-14.88,1.83-28.55-8.85-30.38-23.73l-7.3-59.44
				c-1.83-14.88,8.85-28.55,23.73-30.38l111.53-13.69c14.88-1.83,28.55,8.85,30.38,23.73l7.3,59.44
				C1060.79,540.82,1050.11,554.49,1035.23,556.32z"/>
		</g>
		<g>
			<g>
				<path class="st10" d="M394.75,599c0,28.61,23.41,52.02,52.02,52.02h693.19c28.61,0,52.02-23.41,52.02-52.02v-53.63H394.75V599z"
					/>
				<path class="st10" d="M1191.97,251.96c0-28.61-23.41-52.02-52.02-52.02H446.76c-28.61,0-52.02,23.41-52.02,52.02v121.98h797.22
					V251.96z"/>
				<rect x="394.75" y="373.94" class="st0" width="797.22" height="171.43"/>
			</g>
			<circle class="st6" cx="501.67" cy="287.77" r="43.35"/>
			<path class="st6" d="M1113.77,444.27h-112.37c-14.99,0-27.26-12.27-27.26-27.26v-59.88c0-14.99,12.27-27.26,27.26-27.26h112.37
				c14.99,0,27.26,12.27,27.26,27.26v59.88C1141.03,432,1128.77,444.27,1113.77,444.27z"/>
			<path class="st11" d="M582.76,516.47H465.87c-7.73,0-14.05-6.32-14.05-14.05v-4.41c0-7.73,6.32-14.05,14.05-14.05h116.89
				c7.73,0,14.05,6.32,14.05,14.05v4.41C596.81,510.15,590.49,516.47,582.76,516.47z"/>
			<path class="st11" d="M764.93,516.47H648.04c-7.73,0-14.05-6.32-14.05-14.05v-4.41c0-7.73,6.32-14.05,14.05-14.05h116.89
				c7.73,0,14.05,6.32,14.05,14.05v4.41C778.98,510.15,772.65,516.47,764.93,516.47z"/>
			<path class="st11" d="M947.09,516.47H830.21c-7.73,0-14.05-6.32-14.05-14.05v-4.41c0-7.73,6.32-14.05,14.05-14.05h116.89
				c7.73,0,14.05,6.32,14.05,14.05v4.41C961.14,510.15,954.82,516.47,947.09,516.47z"/>
			<path class="st11" d="M1126.98,516.47h-116.89c-7.73,0-14.05-6.32-14.05-14.05v-4.41c0-7.73,6.32-14.05,14.05-14.05h116.89
				c7.73,0,14.05,6.32,14.05,14.05v4.41C1141.03,510.15,1134.71,516.47,1126.98,516.47z"/>
		</g>
	</g>
	<g id="Cash">
		<g>
			<path class="st4" d="M1250.68,608.91c-7.48,4.97-15.08,9.78-22.78,14.42c-8.36,4.97-17.6,2.32-21.09-5.52
				c-9.63-21.33-25.82-39.59-39.52-60.63c-6.45-9.91-10.52-14.28-0.13-22.22c6.09-4.65,11.13-7.31,17.3-11.75
				c16.02-11.53,22.26-6.43,28.52,1.66c19.76,25.52,26.7,40.08,39.56,62.35C1257.35,595.42,1258.79,603.59,1250.68,608.91z"/>
			<path class="st12" d="M1244.49,629.41c-8.03,4.2-16.13,8.25-24.3,12.14c-8.86,4.16-18.82,0.89-19.7-7.49
				c-3.51-33.31-11.25-40.59-34.36-59.32c-6.97-5.65-7.08-16.63-0.23-21.57c6.4-4.58,19.54-14.24,25.7-19.07
				c6.56-5.21,17.88,1.08,24.14,8.8c16.84,20.93,30.33,41.86,34.95,66.01C1252.43,618.06,1253.18,624.93,1244.49,629.41z"/>
		</g>
		<g>
			<path class="st4" d="M1212.98,602.63c-9.86,0-17.88-8.02-17.88-17.88c0-9.86,8.02-17.88,17.88-17.88s17.88,8.02,17.88,17.88
				C1230.86,594.61,1222.84,602.63,1212.98,602.63z M1212.98,570.62c-7.79,0-14.13,6.34-14.13,14.13c0,7.79,6.34,14.13,14.13,14.13
				c7.79,0,14.13-6.34,14.13-14.13C1227.11,576.96,1220.77,570.62,1212.98,570.62z"/>
		</g>
	</g>
</g>
</svg>
