<svg xmlns="http://www.w3.org/2000/svg" xmlns:xlink="http://www.w3.org/1999/xlink" viewBox="0 0 1294.59 917.14"><defs><style>.cls-1{mask:url(#mask);filter:url(#luminosity-noclip-5);}.cls-2,.cls-4,.cls-6,.cls-8{mix-blend-mode:multiply;}.cls-2{fill:url(#linear-gradient);}.cls-3{mask:url(#mask-2);filter:url(#luminosity-noclip-6);}.cls-4{fill:url(#linear-gradient-2);}.cls-5{mask:url(#mask-3);filter:url(#luminosity-noclip-7);}.cls-6{fill:url(#linear-gradient-3);}.cls-7{mask:url(#mask-4);filter:url(#luminosity-noclip-8);}.cls-8{fill:url(#linear-gradient-4);}.cls-10,.cls-11,.cls-9{opacity:0.16;}.cls-9{fill:url(#radial-gradient);}.cls-10{fill:url(#radial-gradient-2);}.cls-11{fill:url(#radial-gradient-3);}.cls-12{fill:url(#radial-gradient-4);}.cls-13{fill:url(#radial-gradient-5);}.cls-14{fill:url(#radial-gradient-6);}.cls-15{fill:url(#radial-gradient-7);}.cls-16{fill:url(#linear-gradient-5);}.cls-17{fill:url(#linear-gradient-6);}.cls-18{fill:url(#linear-gradient-7);}.cls-19{fill:url(#linear-gradient-8);}.cls-20{fill:url(#linear-gradient-9);}.cls-21{fill:url(#linear-gradient-10);}.cls-22{fill:url(#radial-gradient-8);}.cls-23{fill:url(#radial-gradient-9);}.cls-24{fill:url(#radial-gradient-10);}.cls-25{fill:url(#linear-gradient-11);}.cls-26{mask:url(#mask-5);}.cls-27,.cls-33,.cls-36,.cls-41{opacity:0.32;}.cls-27{fill:url(#linear-gradient-12);}.cls-28{fill:url(#linear-gradient-13);}.cls-29{fill:url(#linear-gradient-14);}.cls-30{fill:url(#radial-gradient-11);}.cls-31{fill:url(#radial-gradient-12);}.cls-32{mask:url(#mask-6);}.cls-33{fill:url(#linear-gradient-15);}.cls-34{fill:url(#radial-gradient-13);}.cls-35{mask:url(#mask-7);}.cls-36{fill:url(#linear-gradient-16);}.cls-37{fill:url(#linear-gradient-17);}.cls-38{fill:url(#linear-gradient-18);}.cls-39{fill:url(#linear-gradient-19);}.cls-40{mask:url(#mask-8);}.cls-41{fill:url(#linear-gradient-20);}.cls-42{fill:url(#linear-gradient-21);}.cls-43{opacity:0.29;}.cls-44{fill:url(#linear-gradient-22);}.cls-45{fill:url(#linear-gradient-23);}.cls-46{fill:url(#linear-gradient-24);}.cls-47{fill:url(#linear-gradient-25);}.cls-48{fill:url(#linear-gradient-26);}.cls-49{fill:url(#linear-gradient-27);}.cls-50{fill:url(#radial-gradient-14);}.cls-51{fill:url(#linear-gradient-28);}.cls-52{fill:url(#linear-gradient-29);}.cls-53{filter:url(#luminosity-noclip-4);}.cls-54{filter:url(#luminosity-noclip-3);}.cls-55{filter:url(#luminosity-noclip-2);}.cls-56{filter:url(#luminosity-noclip);}</style><filter id="luminosity-noclip" x="443.7" y="-8553.42" width="62.4" height="32766" filterUnits="userSpaceOnUse" color-interpolation-filters="sRGB"><feFlood flood-color="#fff" result="bg"/><feBlend in="SourceGraphic" in2="bg"/></filter><mask id="mask" x="443.7" y="-8553.42" width="62.4" height="32766" maskUnits="userSpaceOnUse"><g class="cls-56"/></mask><linearGradient id="linear-gradient" x1="-1611.28" y1="-3393.07" x2="-1669.03" y2="-3327.08" gradientTransform="matrix(-0.7, 0.72, 0.72, 0.7, 1708.09, 3660.33)" gradientUnits="userSpaceOnUse"><stop offset="0" stop-color="#fff"/><stop offset="1"/></linearGradient><filter id="luminosity-noclip-2" x="357.02" y="-8553.42" width="52.97" height="32766" filterUnits="userSpaceOnUse" color-interpolation-filters="sRGB"><feFlood flood-color="#fff" result="bg"/><feBlend in="SourceGraphic" in2="bg"/></filter><mask id="mask-2" x="357.02" y="-8553.42" width="52.97" height="32766" maskUnits="userSpaceOnUse"><g class="cls-55"/></mask><linearGradient id="linear-gradient-2" x1="214.02" y1="-2642.37" x2="294.78" y2="-2595.47" gradientTransform="matrix(-0.99, 0.17, 0.17, 0.99, 1120.17, 2628.34)" xlink:href="#linear-gradient"/><filter id="luminosity-noclip-3" x="399.12" y="-8553.42" width="45.65" height="32766" filterUnits="userSpaceOnUse" color-interpolation-filters="sRGB"><feFlood flood-color="#fff" result="bg"/><feBlend in="SourceGraphic" in2="bg"/></filter><mask id="mask-3" x="399.12" y="-8553.42" width="45.65" height="32766" maskUnits="userSpaceOnUse"><g class="cls-54"/></mask><linearGradient id="linear-gradient-3" x1="204.57" y1="-2626.08" x2="285.32" y2="-2579.18" gradientTransform="matrix(-0.99, 0.17, 0.17, 0.99, 1120.17, 2628.34)" xlink:href="#linear-gradient"/><filter id="luminosity-noclip-4" x="647.42" y="-8553.42" width="148" height="32766" filterUnits="userSpaceOnUse" color-interpolation-filters="sRGB"><feFlood flood-color="#fff" result="bg"/><feBlend in="SourceGraphic" in2="bg"/></filter><mask id="mask-4" x="647.42" y="-8553.42" width="148" height="32766" maskUnits="userSpaceOnUse"><g class="cls-53"/></mask><linearGradient id="linear-gradient-4" x1="1508.3" y1="-2478.61" x2="1078.52" y2="-2637.51" gradientTransform="translate(-478.81 2905.81)" xlink:href="#linear-gradient"/><radialGradient id="radial-gradient" cx="-1.12" cy="-262.24" r="1717.72" gradientTransform="translate(-487.68 -25.45) scale(2.21 1.33)" gradientUnits="userSpaceOnUse"><stop offset="0" stop-color="#7929b7"/><stop offset="0.05" stop-color="#7628b5"/><stop offset="1" stop-color="#310b7a"/></radialGradient><radialGradient id="radial-gradient-2" cx="-576.21" cy="57.75" r="2032.31" gradientTransform="matrix(1, 0, 0, 1, 0, 0)" xlink:href="#radial-gradient"/><radialGradient id="radial-gradient-3" cx="-2498.37" cy="-1136.51" r="9541.58" gradientTransform="translate(-274.56 29.77) scale(1.33 0.96)" xlink:href="#radial-gradient"/><radialGradient id="radial-gradient-4" cx="-744.28" cy="-3590.33" r="308.88" gradientTransform="matrix(-0.9, 0.43, 0.43, 0.9, 2380.66, 3876.72)" xlink:href="#radial-gradient"/><radialGradient id="radial-gradient-5" cx="-2761.4" cy="330.5" r="1774.03" gradientTransform="matrix(-1, -0.04, -0.04, 1, 161.32, 0.38)" xlink:href="#radial-gradient"/><radialGradient id="radial-gradient-6" cx="533.97" cy="932.06" r="264.45" gradientTransform="matrix(1, 0, 0, 1, 0, 0)" xlink:href="#radial-gradient"/><radialGradient id="radial-gradient-7" cx="-59.84" cy="859.33" r="824.63" gradientTransform="matrix(-1, -0.04, -0.04, 1, 161.32, 0.38)" xlink:href="#radial-gradient"/><linearGradient id="linear-gradient-5" x1="-3375.75" y1="592.94" x2="-3307.04" y2="690.05" gradientTransform="translate(3651.51 732.07) rotate(21.28)" gradientUnits="userSpaceOnUse"><stop offset="0" stop-color="#dd647e"/><stop offset="0.58" stop-color="#fe95a9"/><stop offset="1" stop-color="#ffda99"/></linearGradient><linearGradient id="linear-gradient-6" x1="-3573.64" y1="190.3" x2="-3581.84" y2="190.45" gradientTransform="matrix(1, 0, 0, 0.74, 3881.32, -79.11)" xlink:href="#linear-gradient-5"/><linearGradient id="linear-gradient-7" x1="-3579.73" y1="190.3" x2="-3587.92" y2="190.45" gradientTransform="matrix(1, 0, 0, 0.74, 3881.33, -79.38)" xlink:href="#linear-gradient-5"/><linearGradient id="linear-gradient-8" x1="-3585.81" y1="190.3" x2="-3594.01" y2="190.45" gradientTransform="matrix(1, 0, 0, 0.74, 3881.33, -79.65)" xlink:href="#linear-gradient-5"/><linearGradient id="linear-gradient-9" x1="-3591.89" y1="190.3" x2="-3600.09" y2="190.45" gradientTransform="matrix(1, 0, 0, 0.74, 3881.34, -79.92)" xlink:href="#linear-gradient-5"/><linearGradient id="linear-gradient-10" x1="-3335.07" y1="658.22" x2="-3379.3" y2="585.73" xlink:href="#linear-gradient-5"/><radialGradient id="radial-gradient-8" cx="0.81" cy="284.2" r="728.72" gradientTransform="matrix(-1, -0.04, -0.04, 1, 161.32, 0.38)" gradientUnits="userSpaceOnUse"><stop offset="0" stop-color="#e20081"/><stop offset="0.55" stop-color="#ffb048"/><stop offset="1" stop-color="#fffc9f"/></radialGradient><radialGradient id="radial-gradient-9" cx="195.69" cy="-2621.67" r="38.24" gradientTransform="matrix(-0.99, 0.17, 0.17, 0.99, 1120.17, 2628.34)" gradientUnits="userSpaceOnUse"><stop offset="0" stop-color="#eab5f7"/><stop offset="1" stop-color="#09337c"/></radialGradient><radialGradient id="radial-gradient-10" cx="-1285.41" cy="-1583.79" r="975.75" gradientTransform="matrix(-0.51, 0.86, 0.86, 0.51, 1153.08, 1684.91)" xlink:href="#radial-gradient-8"/><linearGradient id="linear-gradient-11" x1="-1718.52" y1="-3361.38" x2="-1620.72" y2="-3311.95" gradientTransform="matrix(-0.7, 0.72, 0.72, 0.7, 1708.09, 3660.33)" xlink:href="#linear-gradient-5"/><filter id="luminosity-noclip-5" x="443.7" y="114.91" width="62.4" height="54.11" filterUnits="userSpaceOnUse" color-interpolation-filters="sRGB"><feFlood flood-color="#fff" result="bg"/><feBlend in="SourceGraphic" in2="bg"/></filter><mask id="mask-5" x="443.7" y="114.91" width="62.4" height="54.11" maskUnits="userSpaceOnUse"><g class="cls-1"><path class="cls-2" d="M453.21,168,492.27,169s24.39-10.31,8.41-23.65l-43-29.84-14-.61Z"/></g></mask><linearGradient id="linear-gradient-12" x1="-1611.28" y1="-3393.07" x2="-1669.03" y2="-3327.08" gradientTransform="matrix(-0.7, 0.72, 0.72, 0.7, 1708.09, 3660.33)" gradientUnits="userSpaceOnUse"><stop offset="0" stop-color="#00091c"/><stop offset="1" stop-color="#000d2b"/></linearGradient><linearGradient id="linear-gradient-13" x1="-563.81" y1="-3043.9" x2="-482.8" y2="-3045.66" gradientTransform="matrix(-0.91, 0.4, 0.4, 0.91, 1193.59, 3116.05)" xlink:href="#linear-gradient-5"/><linearGradient id="linear-gradient-14" x1="331.82" y1="-2656.15" x2="241.84" y2="-2618.75" gradientTransform="matrix(-0.99, 0.17, 0.17, 0.99, 1120.17, 2628.34)" gradientUnits="userSpaceOnUse"><stop offset="0" stop-color="#ffe75c"/><stop offset="0.13" stop-color="#ffe25a"/><stop offset="0.28" stop-color="#ffd553"/><stop offset="0.43" stop-color="#ffbe48"/><stop offset="0.59" stop-color="#ff9f39"/><stop offset="0.75" stop-color="#ff7625"/><stop offset="0.92" stop-color="#ff460d"/><stop offset="1" stop-color="#ff2a00"/></linearGradient><radialGradient id="radial-gradient-11" cx="-1087.82" cy="-1361.66" r="253.93" gradientTransform="matrix(-0.51, 0.86, 0.86, 0.51, 1153.08, 1684.91)" xlink:href="#radial-gradient-8"/><radialGradient id="radial-gradient-12" cx="-1087.82" cy="-1361.66" r="253.93" gradientTransform="matrix(-0.51, 0.86, 0.86, 0.51, 1153.08, 1684.91)" xlink:href="#radial-gradient-8"/><filter id="luminosity-noclip-6" x="357.02" y="120.62" width="52.97" height="11.81" filterUnits="userSpaceOnUse" color-interpolation-filters="sRGB"><feFlood flood-color="#fff" result="bg"/><feBlend in="SourceGraphic" in2="bg"/></filter><mask id="mask-6" x="357.02" y="120.62" width="52.97" height="11.81" maskUnits="userSpaceOnUse"><g class="cls-3"><line class="cls-4" x1="409.98" y1="120.62" x2="357.02" y2="132.43"/></g></mask><linearGradient id="linear-gradient-15" x1="214.02" y1="-2642.37" x2="294.78" y2="-2595.47" gradientTransform="matrix(-0.99, 0.17, 0.17, 0.99, 1120.17, 2628.34)" xlink:href="#linear-gradient-12"/><radialGradient id="radial-gradient-13" cx="188.59" cy="-2622.42" r="47.45" xlink:href="#radial-gradient-9"/><filter id="luminosity-noclip-7" x="399.12" y="92.51" width="45.65" height="45.7" filterUnits="userSpaceOnUse" color-interpolation-filters="sRGB"><feFlood flood-color="#fff" result="bg"/><feBlend in="SourceGraphic" in2="bg"/></filter><mask id="mask-7" x="399.12" y="92.51" width="45.65" height="45.7" maskUnits="userSpaceOnUse"><g class="cls-5"><path class="cls-6" d="M444.77,92.51,427.4,129.37s-23.6,10-24,8.73S399.12,123,399.12,123Z"/></g></mask><linearGradient id="linear-gradient-16" x1="204.57" y1="-2626.08" x2="285.32" y2="-2579.18" gradientTransform="matrix(-0.99, 0.17, 0.17, 0.99, 1120.17, 2628.34)" xlink:href="#linear-gradient-12"/><linearGradient id="linear-gradient-17" x1="310.34" y1="-2616.52" x2="259.5" y2="-2587.14" xlink:href="#linear-gradient-14"/><linearGradient id="linear-gradient-18" x1="-516.83" y1="-2472.76" x2="-161.82" y2="-2680.76" gradientTransform="matrix(-1, 0, 0, 1, 375.37, 2924.39)" gradientUnits="userSpaceOnUse"><stop offset="0" stop-color="#ff0068"/><stop offset="1" stop-color="#fff39f"/></linearGradient><linearGradient id="linear-gradient-19" x1="-551.08" y1="-2623.84" x2="-142.7" y2="-2702.25" gradientTransform="matrix(-1, 0, 0, 1, 349.11, 2929.31)" xlink:href="#linear-gradient-18"/><filter id="luminosity-noclip-8" x="647.42" y="228.53" width="148" height="169.39" filterUnits="userSpaceOnUse" color-interpolation-filters="sRGB"><feFlood flood-color="#fff" result="bg"/><feBlend in="SourceGraphic" in2="bg"/></filter><mask id="mask-8" x="647.42" y="228.53" width="148" height="169.39" maskUnits="userSpaceOnUse"><g class="cls-7"><rect class="cls-8" x="669.98" y="242.59" width="102.89" height="141.29" transform="translate(-64.73 290.36) rotate(-21.8)"/></g></mask><linearGradient id="linear-gradient-20" x1="1508.3" y1="-2478.61" x2="1078.52" y2="-2637.51" gradientTransform="translate(-478.81 2905.81)" xlink:href="#linear-gradient-12"/><linearGradient id="linear-gradient-21" x1="1066.03" y1="-2569.02" x2="1344.09" y2="-2424.97" gradientTransform="translate(-456.84 2941.62)" gradientUnits="userSpaceOnUse"><stop offset="0" stop-color="#efd8a8"/><stop offset="1" stop-color="#e25827"/></linearGradient><linearGradient id="linear-gradient-22" x1="1168.11" y1="-2578.76" x2="1400.06" y2="-2458.59" gradientTransform="translate(-468.36 2906.45)" xlink:href="#linear-gradient-21"/><linearGradient id="linear-gradient-23" x1="1168.11" y1="-2568.61" x2="1400.06" y2="-2448.45" gradientTransform="translate(-464.59 2905.72)" xlink:href="#linear-gradient-21"/><linearGradient id="linear-gradient-24" x1="1165.58" y1="-2553.77" x2="1313.79" y2="-2476.99" gradientTransform="translate(-459.99 2909.3)" xlink:href="#linear-gradient-21"/><linearGradient id="linear-gradient-25" x1="-570.24" y1="-3067.44" x2="-492.17" y2="-3012.84" gradientTransform="matrix(-0.91, 0.4, 0.4, 0.91, 1193.59, 3116.05)" xlink:href="#linear-gradient-5"/><linearGradient id="linear-gradient-26" x1="784.57" y1="-1957.55" x2="522.87" y2="-1675.99" gradientTransform="matrix(-1, -0.1, -0.1, 1, 1206.27, 2090.87)" xlink:href="#linear-gradient-5"/><linearGradient id="linear-gradient-27" x1="801.93" y1="-1941.42" x2="540.23" y2="-1659.86" gradientTransform="matrix(-1, -0.1, -0.1, 1, 1206.27, 2090.87)" xlink:href="#linear-gradient-5"/><radialGradient id="radial-gradient-14" cx="-435.57" cy="19.49" r="290.82" xlink:href="#radial-gradient-8"/><linearGradient id="linear-gradient-28" x1="570.93" y1="-1724.69" x2="663.88" y2="-1630.7" gradientTransform="matrix(-1, -0.1, -0.1, 1, 1206.27, 2090.87)" xlink:href="#linear-gradient-5"/><linearGradient id="linear-gradient-29" x1="-235.73" y1="181.12" x2="-57.07" y2="181.12" gradientTransform="matrix(-1, -0.04, -0.04, 1, 161.32, 0.38)" xlink:href="#linear-gradient-5"/></defs><title>delivery</title><g id="Capa_2" data-name="Capa 2"><g id="Layer_1" data-name="Layer 1"><path class="cls-9" d="M803.07,37.28a58.56,58.56,0,0,0-6,.31C792.18,16.35,761.8,0,725,0c-31.72,0-58.68,12.17-68.61,29.15h0c-1.34-.07-2.7-.1-4.07-.1-24.63,0-45.1,10.65-49.29,24.69-9.12,1.88-15.66,7.07-15.66,13.17A9.75,9.75,0,0,0,590,73.35H830.48c5.55-3.83,8.92-8.82,8.92-14.29C839.4,47,823.14,37.28,803.07,37.28Z"/><path class="cls-10" d="M115.33,424a18.92,18.92,0,0,0-3.23.27,38.87,38.87,0,0,0-75.19-7.53h0c-.72-.06-1.44-.09-2.17-.09a26.79,26.79,0,0,0-26.36,22,12.42,12.42,0,0,0-7,17.51H130A19.44,19.44,0,0,0,115.33,424Z"/><path class="cls-11" d="M718.55,589.07a162.06,162.06,0,0,0-20.15,1.23C682.28,505,581.07,439.24,458.57,439.24c-105.67,0-195.51,48.91-228.6,117.15h0c-4.46-.28-9-.41-13.55-.41-82.07,0-150.24,42.81-164.23,99.21C21.81,662.74,0,683.6,0,708.11a43.76,43.76,0,0,0,8.83,25.94H809.89c18.49-15.39,29.72-35.45,29.72-57.44C839.61,628.28,785.42,589.07,718.55,589.07Z"/><path class="cls-12" d="M1181,526.31l30-23.11,10-8.53,16.13,1.49-5,15.24,17.11-8.22s43.48,13,45.37,44.45c0,0-4,9.62-14.54-3.8s-14.78-14.72-14.78-14.72L1210,538Z"/><path class="cls-13" d="M664.23,572.49s343.63,275.25,573.66-37.35l-41.64-23s-211.45,179-413.45-49.78Z"/><path class="cls-14" d="M492.73,811l35.92,11.86,12.67,3.51,7.8,14.19L533.7,845l16.39,9.56s13.59,43.3-11.4,62.49c0,0-10.19,2.09-5-14.17s3.92-20.49,3.92-20.49l-38.34-40.85Z"/><path class="cls-15" d="M595.16,439.24s-267.77,66-308.41,176.11S498.95,845.19,498.95,845.19l32.19-26.62s-81.42-152.5-148-168.59c0,0,612.9-77,330.29-254.58C713.4,395.4,622.15,405.84,595.16,439.24Z"/><path class="cls-16" d="M309.61,66.41S309.15,52.8,294,55c-17.24,2.52-12.66,35.87-12.66,35.87S298.77,99.75,309.61,66.41Z"/><rect class="cls-17" x="299.83" y="53.7" width="6.08" height="16.62" rx="1.7" ry="1.7" transform="translate(3.03 -13.29) rotate(2.53)"/><rect class="cls-18" x="293.75" y="53.43" width="6.08" height="16.62" rx="1.7" ry="1.7" transform="matrix(1, 0.04, -0.04, 1, 3.01, -13.02)"/><rect class="cls-19" x="287.67" y="53.16" width="6.08" height="16.62" rx="1.7" ry="1.7" transform="translate(2.99 -12.75) rotate(2.53)"/><rect class="cls-20" x="281.6" y="52.89" width="6.08" height="16.62" rx="1.7" ry="1.7" transform="translate(2.97 -12.49) rotate(2.53)"/><path class="cls-21" d="M298.41,100.68l11.2-34.27-22.11-1.1s4,9.06,15.27,4.88L280.84,93.84Z"/><polygon class="cls-22" points="423.94 182.86 337.75 203.32 386 270.39 463.36 258.61 423.94 182.86"/><path class="cls-23" d="M432.84,92.19l1.48-.57c.74-.28,14.33-4.66,14.33-4.66a17.88,17.88,0,0,1,12.08,2.81c5.66,3.91,9.39,18.11,9.39,18.11l9.2,22.66-32.05-18-6.36,2.82Z"/><path class="cls-24" d="M527.95,148.82s66.5-15,88.17-10.64l40.82,134.93,72.35,84.54L595.16,439.24S465.65,298.33,423.94,182.86l56.65-12.08Z"/><path class="cls-25" d="M453.21,168l41.17,27.52s35-19,26.69-49.78l-77.8-37.88Z"/><g class="cls-26"><path class="cls-27" d="M453.21,168,492.27,169s24.39-10.31,8.41-23.65l-43-29.84-14-.61Z"/></g><path class="cls-28" d="M440.71,103.56l18.44,63.75-40.65,17.95S392,107.6,393.09,92.53,423.84,65.35,440.71,103.56Z"/><path class="cls-29" d="M460.73,89.77l-66.81,11.45s-16.39-21,.3-29.32C424.24,56.89,456.89,60.38,460.73,89.77Z"/><polygon class="cls-30" points="521.07 145.71 494.39 195.48 524.05 201.6 527.95 148.82 521.07 145.71"/><polygon class="cls-31" points="494.39 195.48 489.04 210.07 479.16 185.31 494.39 195.48"/><g class="cls-32"><line class="cls-33" x1="409.98" y1="120.62" x2="357.02" y2="132.43"/></g><polygon class="cls-34" points="456.06 111.59 444.75 117.53 448.5 132.05 445.64 132.53 437.41 103.22 434.34 100.94 444.77 92.51 456.06 111.59"/><g class="cls-35"><path class="cls-36" d="M444.77,92.51,427.4,129.37s-23.6,10-24,8.73S399.12,123,399.12,123Z"/></g><polygon class="cls-37" points="444.77 92.51 409.98 120.62 357.02 132.43 393.93 101.22 444.77 92.51"/><rect class="cls-38" x="570.5" y="241.46" width="202.15" height="161.57" transform="translate(-71.65 272.49) rotate(-21.8)"/><rect class="cls-39" x="537.71" y="246.38" width="215.91" height="20.29" transform="translate(-49.09 258.17) rotate(-21.8)"/><g class="cls-40"><rect class="cls-41" x="669.98" y="242.59" width="102.89" height="141.29" transform="translate(-64.73 290.36) rotate(-21.8)"/></g><rect class="cls-42" x="608.63" y="373.32" width="61.59" height="29.71" transform="translate(-98.44 265.27) rotate(-21.8)"/><g class="cls-43"><rect class="cls-44" x="694.19" y="338.14" width="61.59" height="5.07" transform="translate(-74.67 293.65) rotate(-21.8)"/><rect class="cls-45" x="697.96" y="347.56" width="61.59" height="5.07" transform="translate(-77.9 295.72) rotate(-21.8)"/><rect class="cls-46" x="702.56" y="361.28" width="38.4" height="5.07" transform="translate(-83.5 294.11) rotate(-21.8)"/></g><path class="cls-47" d="M443.66,115.39s10.12-10.5,15.51,1.69-10.46,15.75-10.46,15.75Z"/><path class="cls-48" d="M616.12,138.18s152.46,17.5,207.39,80.18S640.87,220,640.87,220Z"/><path class="cls-49" d="M823.5,218.37s-51.27,1-94.21,139.29c-10.11,32.55-15.89,37.74-15.89,37.74l19.89,13.52S896.17,279.66,823.5,218.37Z"/><polygon class="cls-50" points="640.87 220.01 678.39 232.51 677.88 146.78 616.12 138.18 640.87 220.01"/><path class="cls-51" d="M733.28,408.92l-32.85,14.53-47.49-6.74a7.89,7.89,0,0,1,9.79-3.91c7,2.18,19.65,3.15,19.65,3.15l14.86-10.55-22.84-1.19s-3.49-7.46,8.67-5.94,30.33-2.88,30.33-2.88Z"/><path class="cls-52" d="M337.75,203.32,261,220.14s47.33-55.08,40.38-128.43l-20-.83S196.25,236.46,209,267s177,3.37,177,3.37Z"/></g></g></svg>