<?xml version="1.0" encoding="utf-8"?>
<!-- Generator: Adobe Illustrator 23.0.3, SVG Export Plug-In . SVG Version: 6.00 Build 0)  -->
<svg version="1.1" xmlns="http://www.w3.org/2000/svg" xmlns:xlink="http://www.w3.org/1999/xlink" x="0px" y="0px"
	 viewBox="0 0 1799.6 1200.87" style="enable-background:new 0 0 1799.6 1200.87;" xml:space="preserve">
<style type="text/css">
	.st0{opacity:0.67;fill:#A7ADFF;}
	.st1{fill:#A7ADFF;}
	.st2{fill:#E3E5FC;}
	.st3{fill:#FFFFFF;}
	.st4{fill:#978CFF;}
	.st5{fill:#FDC510;}
	.st6{fill:none;}
	.st7{fill:#F44E4E;}
	.st8{fill:#EAC2AB;}
	.st9{fill:#4B369D;}
	.st10{fill:#5A54FF;}
	.st11{fill:#D4A79A;}
	.st12{fill:#D7384E;}
</style>
<g id="UI">
	<g id="Growth">
		<path class="st0" d="M1038.95,1066.39H911.03c-24.73,0-44.96-20.23-44.96-44.96v-228.9c0-24.73,20.23-44.96,44.96-44.96h127.91
			c24.73,0,44.96,20.23,44.96,44.96v228.9C1083.91,1046.16,1063.68,1066.39,1038.95,1066.39z"/>
		<path class="st1" d="M1269.55,1066.39h-127.91c-24.73,0-44.96-20.23-44.96-44.96v-410.3c0-24.73,20.23-44.96,44.96-44.96h127.91
			c24.73,0,44.96,20.23,44.96,44.96v410.3C1314.52,1046.16,1294.28,1066.39,1269.55,1066.39z"/>
		<path class="st2" d="M808.76,1066.39H680.85c-24.73,0-44.96-20.23-44.96-44.96V882.4c0-24.73,20.23-44.96,44.96-44.96h127.91
			c24.73,0,44.96,20.23,44.96,44.96v139.03C853.73,1046.16,833.49,1066.39,808.76,1066.39z"/>
	</g>
	<g id="Chart">
		<path class="st2" d="M1387.66,445.06h-235.19c-24.73,0-44.96-20.23-44.96-44.96v-50.21c0-24.73,20.23-44.96,44.96-44.96h235.19
			c24.73,0,44.96,20.23,44.96,44.96v50.21C1432.62,424.83,1412.39,445.06,1387.66,445.06z"/>
		<path class="st0" d="M1330.61,398.46h-235.19c-24.73,0-44.96-20.23-44.96-44.96V243.41c0-24.73,20.23-44.96,44.96-44.96h235.19
			c24.73,0,44.96,20.23,44.96,44.96v110.09C1375.58,378.23,1355.34,398.46,1330.61,398.46z"/>
		<g>
			<path class="st3" d="M1114.28,341.67c23.75,32.69,69.5,39.94,102.18,16.19l-85.99-118.37
				C1097.78,263.23,1090.53,308.98,1114.28,341.67z"/>
			<g>
				<path class="st3" d="M1138.16,233.9l39.4,54.23l55.28-40.16C1210.42,218.35,1168.35,211.96,1138.16,233.9z"/>
				<path class="st3" d="M1239.29,256.72c-0.27-0.37-0.58-0.7-0.86-1.07l-55.28,40.16l41.01,56.45
					C1254.72,330.06,1261.5,287.29,1239.29,256.72z"/>
			</g>
		</g>
		<g>
			<path class="st3" d="M1340.48,279.31h-60.79c-3.11,0-5.65-2.54-5.65-5.65l0,0c0-3.11,2.54-5.65,5.65-5.65h60.79
				c3.11,0,5.65,2.54,5.65,5.65l0,0C1346.13,276.77,1343.59,279.31,1340.48,279.31z"/>
			<path class="st3" d="M1340.48,298.5h-60.79c-3.11,0-5.65-2.54-5.65-5.65v0c0-3.11,2.54-5.65,5.65-5.65h60.79
				c3.11,0,5.65,2.54,5.65,5.65v0C1346.13,295.95,1343.59,298.5,1340.48,298.5z"/>
			<path class="st3" d="M1340.48,317.68h-60.79c-3.11,0-5.65-2.54-5.65-5.65l0,0c0-3.11,2.54-5.65,5.65-5.65h60.79
				c3.11,0,5.65,2.54,5.65,5.65l0,0C1346.13,315.14,1343.59,317.68,1340.48,317.68z"/>
			<path class="st3" d="M1340.48,336.86h-60.79c-3.11,0-5.65-2.54-5.65-5.65l0,0c0-3.11,2.54-5.65,5.65-5.65h60.79
				c3.11,0,5.65,2.54,5.65,5.65l0,0C1346.13,334.32,1343.59,336.86,1340.48,336.86z"/>
		</g>
	</g>
	<g id="Button">
		<g>
			<path class="st2" d="M615.36,618.1H396.57c-16.28,0-29.6-13.32-29.6-29.6v-6.81c0-16.28,13.32-29.6,29.6-29.6h218.79
				c16.28,0,29.6,13.32,29.6,29.6v6.81C644.96,604.78,631.64,618.1,615.36,618.1z"/>
			<g>
				<path class="st3" d="M612.91,587.12l-0.22,0.27c-0.52,0.64-1.48,0.74-2.12,0.22l-19.15-15.6c-0.64-0.52-0.74-1.48-0.22-2.12
					l0.22-0.27c0.52-0.64,1.48-0.74,2.12-0.22l19.15,15.6C613.34,585.53,613.44,586.48,612.91,587.12z"/>
				<path class="st3" d="M612.91,585.47l-0.22-0.27c-0.52-0.64-1.48-0.74-2.12-0.22l-19.15,15.6c-0.64,0.52-0.74,1.48-0.22,2.12
					l0.22,0.27c0.52,0.64,1.48,0.74,2.12,0.22l19.15-15.6C613.34,587.06,613.44,586.11,612.91,585.47z"/>
			</g>
		</g>
		<g>
			<path class="st1" d="M649.24,691.54H502.93c-10.89,0-19.79-8.91-19.79-19.79v-4.55c0-10.89,8.91-19.79,19.79-19.79h146.31
				c10.89,0,19.79,8.91,19.79,19.79v4.55C669.03,682.63,660.12,691.54,649.24,691.54z"/>
			<g>
				<path class="st3" d="M647.6,670.83l-0.15,0.18c-0.35,0.43-0.99,0.49-1.42,0.14l-12.81-10.43c-0.43-0.35-0.49-0.99-0.14-1.42
					l0.15-0.18c0.35-0.43,0.99-0.49,1.42-0.14l12.81,10.43C647.88,669.76,647.95,670.4,647.6,670.83z"/>
				<path class="st3" d="M647.6,669.72l-0.15-0.18c-0.35-0.43-0.99-0.49-1.42-0.14l-12.81,10.43c-0.43,0.35-0.49,0.99-0.14,1.42
					l0.15,0.18c0.35,0.43,0.99,0.49,1.42,0.14l12.81-10.43C647.88,670.78,647.95,670.15,647.6,669.72z"/>
			</g>
		</g>
	</g>
</g>
<g id="Nature">
	<g id="Plant_1_">
		<path class="st4" d="M620.62,1001.91c-4.51-2.54-11.19-1.14-13.34,3.57c-6-11.13-2.99-24.67-1.5-37.22
			c0.53-4.5,0.8-9.27-1.15-13.36c-1.96-4.09-6.87-7.1-11.09-5.44c-8.63,3.39-5.87,20.56-15.08,21.6c-5.23,0.59-8.61-5.09-11.54-9.46
			c-4.03-6.01-9.71-10.89-16.26-13.97c-2.31-1.08-5.4-1.81-7.12,0.08c-1.6,1.75-0.87,4.52,0,6.72c2.96,7.47,6.55,14.69,10.71,21.55
			c0.58,0.96,1.2,2.04,0.96,3.14c-0.54,2.5-4.21,2.13-6.57,1.15c-8.52-3.55-17.04-7.09-25.56-10.64c-2.42,2.25-1.43,6.4,0.66,8.95
			c2.09,2.55,5.04,4.38,6.77,7.19c2.6,4.24,1.84,9.64,2.41,14.58c0.57,4.95,4.01,10.6,8.95,9.96c-4.05,1.86-4.18,8.02-1.43,11.52
			s7.2,5.09,11.33,6.77c4.12,1.69,8.46,3.95,10.24,8.03c1.52,3.47,0.83,7.49,1.58,11.2c4.11,20.33,32.72,28.24,44.58,12.07
			C616.45,1048.65,638.42,1011.95,620.62,1001.91z"/>
		<path class="st5" d="M513.11,1059.93c-1.55-1.7-3.2-3.67-3.03-5.96c0.22-2.99,3.74-4.91,6.67-4.29c2.93,0.62,5.16,3.06,6.57,5.7
			c0.2-3.56,1.08-7.08,2.58-10.32c0.58-1.26,1.66-2.67,3.01-2.37c0.79,0.18,1.32,0.9,1.71,1.61c1.58,2.89,1.93,6.44,0.94,9.58
			c1.77-6.26,7.07-11.4,13.38-12.98c0.79-0.2,1.67-0.33,2.4,0.04c1.66,0.86,1.16,3.34,0.41,5.06c-3.53,8.12-7.41,17.98-14.47,23.77
			C526.33,1075.45,517.47,1064.71,513.11,1059.93z"/>
		<g>
			<path class="st3" d="M596.77,1070.43c-0.83,0-1.58-0.55-1.81-1.39l-20.92-78.36c-0.27-1,0.33-2.03,1.33-2.29
				c0.99-0.27,2.03,0.33,2.29,1.33l20.92,78.36c0.27,1-0.33,2.03-1.33,2.29C597.09,1070.41,596.93,1070.43,596.77,1070.43z"/>
		</g>
		<g>
			<path class="st3" d="M583.68,1021.42c-0.28,0-0.57-0.06-0.83-0.2l-27.51-13.73c-0.93-0.46-1.3-1.59-0.84-2.51
				c0.46-0.93,1.59-1.3,2.51-0.84l27.51,13.73c0.93,0.46,1.3,1.59,0.84,2.51C585.03,1021.04,584.37,1021.42,583.68,1021.42z"/>
		</g>
		<g>
			<path class="st3" d="M590.99,1048.8c-0.29,0-0.58-0.07-0.86-0.21c-0.92-0.48-1.28-1.6-0.8-2.52l11.4-22.07
				c0.48-0.92,1.6-1.28,2.52-0.8c0.92,0.48,1.28,1.6,0.8,2.52l-11.4,22.07C592.33,1048.43,591.67,1048.8,590.99,1048.8z"/>
		</g>
	</g>
	<g id="Plant">
		<path class="st5" d="M1261,996.75c-0.23-0.8-0.43-1.61-0.61-2.43c-2.16-10.08,0.6-21.73,8.86-27.9
			c8.1-6.06,21.12-7.26,24.23-16.89c2.21-6.82-2.18-13.79-5.23-20.28s-4.03-15.85,2.21-19.38c5.11-2.89,11.86,0.22,17.27-2.05
			c9.21-3.86,7.84-19.53,16.92-23.68c5.95-2.72,13.06,1.2,19.39-0.44c9.16-2.38,11.56-14.59,9.33-23.78
			c-2.23-9.2-7.25-18.09-6.15-27.49c2.98-25.59,63.44-44.25,64.53-10.12c0.3,9.37-5.97,17.49-9.55,26.16
			c-3.58,8.67-2.9,21.21,5.92,24.4c5.97,2.16,14.24-0.62,17.9,4.58c6.75,9.59-16.5,17.04-15.12,28.68
			c0.95,7.99,12.11,9.47,17.56,15.4c7.17,7.8,1.95,21.13-6.7,27.24s-19.6,7.88-29.11,12.54c-3.81,1.86-7.67,4.56-8.79,8.64
			c-2.52,9.15,9.43,15.13,18.81,16.54s21.57,4.99,21.56,14.48c-0.01,7.6-8.45,12.16-15.86,13.9s-15.97,2.96-20.16,9.31
			c-4,6.08-2.14,14.25-4.31,21.19c-4.9,15.66-56.36,25.3-72.31,21.41c-25.05-6.1-18.23-27.21-35.75-46.12
			C1269.39,1013.73,1263.58,1005.8,1261,996.75z"/>
		<path class="st6" d="M1264.36,1047.66c0.42-0.42,0.83-0.83,1.25-1.25"/>
		<path class="st7" d="M1304.78,1045.75c4.66-11.08,3.31-23.65,1.88-35.59c-0.48-3.99-1-8.12-3.08-11.55c-2.08-3.44-6.18-6-10.08-5
			c-5.04,1.29-7.82,7.78-13.01,8.13c-4,0.27-7.24-3.44-8.44-7.26c-2.35-7.5,0.55-15.55,0.6-23.4s-5.53-17.29-13.23-15.7
			c-7.95,1.64-9.08,12.54-7.52,20.5c0.71,3.64,1.2,8.28-1.96,10.22c-3.35,2.05-7.42-0.91-10.32-3.56
			c-5.61-5.12-11.67-9.74-18.09-13.79c-2.95-1.86-6.99-3.54-9.64-1.28c-2.56,2.18-1.7,6.3-0.36,9.38c2.74,6.29,6.62,12.08,11.4,17
			c2.41,2.48,5.19,6.27,2.96,8.91c-1.8,2.14-5.22,1.25-7.81,0.19c-5.59-2.27-19.9-24.96-17.1-0.12
			c2.8,24.84,29.37,22.44,44.83,32.56c-6.45,4.52-6.62,14.67-2.21,21.19s11.99,10.11,19.44,12.67
			C1285.79,1077.08,1295.42,1068.03,1304.78,1045.75z"/>
		<g>
			<path class="st3" d="M1290.28,1068.27c-0.62,0-1.23-0.31-1.59-0.88l-39.34-63.08c-0.55-0.88-0.28-2.03,0.6-2.58
				c0.87-0.54,2.03-0.28,2.58,0.6l39.34,63.08c0.55,0.88,0.28,2.03-0.6,2.58C1290.97,1068.17,1290.62,1068.27,1290.28,1068.27z"/>
		</g>
		<g>
			<path class="st3" d="M1277.48,1047.74c-0.16,0-0.32-0.02-0.48-0.06c-1-0.26-1.6-1.29-1.33-2.29l6.87-26
				c0.26-1,1.28-1.6,2.29-1.33c1,0.26,1.6,1.29,1.33,2.29l-6.87,26C1279.07,1047.19,1278.31,1047.74,1277.48,1047.74z"/>
		</g>
		<g>
			<path class="st3" d="M1261.26,1021.74c-0.1,0-0.2-0.01-0.3-0.02l-21.56-3.43c-1.02-0.16-1.72-1.12-1.56-2.14
				c0.16-1.02,1.11-1.73,2.15-1.56l21.56,3.43c1.02,0.16,1.72,1.12,1.56,2.14C1262.97,1021.08,1262.17,1021.74,1261.26,1021.74z"/>
		</g>
		<g>
			<path class="st3" d="M1309.11,1074.82c-0.2,0-0.41-0.03-0.61-0.1c-0.98-0.34-1.5-1.4-1.16-2.38l62.35-180.79
				c0.34-0.98,1.41-1.49,2.38-1.16c0.98,0.34,1.5,1.4,1.16,2.38l-62.35,180.79C1310.62,1074.34,1309.89,1074.82,1309.11,1074.82z"/>
		</g>
		<g>
			<path class="st3" d="M1334.62,1005.19c-0.95,0-1.76-0.72-1.86-1.69c-0.11-1.03,0.65-1.95,1.68-2.05l40.59-4.06
				c1-0.1,1.95,0.65,2.05,1.68c0.11,1.03-0.65,1.95-1.68,2.05l-40.59,4.06C1334.75,1005.19,1334.68,1005.19,1334.62,1005.19z"/>
		</g>
		<g>
			<path class="st3" d="M1351.41,951.89c-0.89,0-1.67-0.63-1.84-1.53c-0.19-1.02,0.49-2,1.5-2.18l34.41-6.34
				c1.04-0.19,1.99,0.48,2.18,1.5c0.19,1.02-0.49,2-1.5,2.18l-34.41,6.34C1351.64,951.88,1351.53,951.89,1351.41,951.89z"/>
		</g>
		<g>
			<path class="st3" d="M1343.05,976.03c-0.5,0-1-0.2-1.37-0.59l-28.53-30.48c-0.71-0.76-0.67-1.94,0.09-2.65
				c0.76-0.71,1.94-0.66,2.65,0.09l28.53,30.48c0.71,0.76,0.67,1.94-0.09,2.65C1343.97,975.86,1343.51,976.03,1343.05,976.03z"/>
		</g>
	</g>
</g>
<g id="Characters">
	<g id="Woman">
		<g id="Bag">
			<path class="st5" d="M809.61,445.27l-83.93,24.19c-7.76,2.24-15.93-2.28-18.17-10.04l-17.2-59.67
				c-2.24-7.76,2.28-15.93,10.04-18.17l83.93-24.19c7.76-2.24,15.93,2.28,18.17,10.04l17.2,59.67
				C821.88,434.86,817.36,443.03,809.61,445.27z"/>
			<polygon class="st5" points="694.86,389.51 785.99,279.31 797.68,304.92 779.9,306.37 707.77,389.51 			"/>
		</g>
		<g id="Leg_1_">
			<path id="Skin_1_" class="st8" d="M899.96,674.99l-14.47,50.16l-18.44-2.8l18.43-51.49
				C885.48,670.86,895.78,671.03,899.96,674.99z"/>
			<path id="Shoe_1_" class="st5" d="M959.55,737.05c0,0-13.07,4.76-38.41,7.54c-25.34,2.78-59.32,1.27-65.4-0.58
				c-9.25-2.8-3.59-31.1,4.88-31.44s12.29,10.99,26.77,0.17c12.4-9.27,23.38,6.84,45.87,10.35
				C955.75,726.61,964.86,728.01,959.55,737.05z"/>
			<path id="Leg_3_" class="st9" d="M922.35,677.51c3.87-41.24,18.08-99.8,9.23-141.3c-9-42.19-39.12-56.65-69.06-86.77
				c-30.93-31.13-30.79-1.37-30.79-1.37s-2.75,8.91-2.75,8.91c14.61,12.2-27.85,20.18-13.61,32.76
				c15.34,13.55,27.35,20.29,42.17,34.35c18.89,17.92,29.05,10.21,26.98,36.54c-0.59,7.47-13.89,75.56-17.8,104.21
				c-4.52,33.16-27.29,23.05,34.09,33.61C938.98,705,919.94,703.32,922.35,677.51z"/>
		</g>
		<g id="Leg">
			<path id="Skin" class="st8" d="M772.87,752.97l-0.74,51.26l-18.36,1.53l4.17-53.44C757.94,752.32,767.83,750.14,772.87,752.97z"
				/>
			<path id="Shoe" class="st5" d="M845.34,823.08c0,0-13.18,3.96-38.32,5.27c-25.14,1.31-53.17,1.71-58.2-1.86
				c-5.03-3.57-7.72-33.22,0.65-33.08s11.4,11.52,26.35,1.67c12.81-8.44,22.59,8.05,44.52,12.78S851.15,814.47,845.34,823.08z"/>
			<path id="Leg_2_" class="st10" d="M812.45,775.73c-0.5-1.94-2.44-3.64-4.07-5.34c-14.97-15.6-7.21-34.58-1.36-51.31
				c13.89-39.69,14.25-81.85,18.97-122.99c4.6-40.16,16.04-79.39,32.74-116.61c6.07-13.52,14.86-34.53-9.19-34.07
				c-11.39,0.22-22.22-1.88-32.9-5.41c-5.62-1.86,0.6-2.69-5.62-1.86c-21.21,2.84-35.13,37.21-33.23,50.25
				c3.79,25.96,2.21,50.05-1.16,76.39c-4.77,37.34-4.85,75.45-16.18,111.46c-5.55,17.65-11.46,35.19-17.26,52.76
				c-3.39,10.25-16.9,31.75-12.32,42.23c6.29,14.39,46.79,9.4,59.7,11.12C800.27,783.62,814.16,782.32,812.45,775.73z"/>
		</g>
		<g id="Head">
			<path id="Neck" class="st11" d="M854.89,250.84c0,0-5.57,38.12-5.57,38.12c-9.84,2.71-20.16,7.87-30.54,7.86
				c0.47-7.07,7.88-15.16,11.28-21.83c4.13-8.09,7.04-16.47,6.58-25.55C835.44,225.71,854.89,250.84,854.89,250.84z"/>
			<path id="Face" class="st8" d="M872.17,176.95c-0.02,0.04,16.01,10.2,7.51,34.51c-9.09,26.01-22.2,47.79-30.61,45.54
				c-23.26-6.23-30.18-22.49-37.2-36.52c-8.61-17.21,14.88-55.77,14.88-55.77l19.7-8.06L872.17,176.95z"/>
			<path id="Hair_1_" class="st9" d="M901.89,175.32c2.34-5.42-0.28-15.6-4.3-19.36c-1.55-1.45-3.58-2.46-5.7-2.43
				c-1.59,0.02-3.21,0.62-4.75,0.25c-4.64-1.1-4.63-4.79-8.89-6.44c-3.17-1.23-6.54,1.28-9.92,1.76c-2.56,0.36-5.09-0.47-7.57-1.16
				c-6.98-1.94-13.27-5.63-20.48-7.01c-6.08-1.16-12.54-1.01-18.34,1.35c-6.05,2.46-10.68,7.48-13.44,13.49
				c-1.65,3.59-2.44,7.67-1.71,11.53c-0.6-3.17-6.88-0.3-7.96,0.85c-4.23,4.51-14.88,17.71-13.35,23.45
				c1.21,4.55-2.55,8.67-1.48,13.27c1.27,5.48,16.62,8.65,19.37,13.64c3.16,5.72,10.13,9.05,16.47,8.02
				c-1.48-5.07-2.94-10.25-2.83-15.57c0.12-5.32-5.27-29.78,23.04-32.8c11.25-1.2,23.84,8.46,34.9,9.73
				c5.25,0.6,10.61,0.05,15.72-1.44c3.95-1.15,8.13-6.19,10.58-9.92C901.5,176.14,901.71,175.74,901.89,175.32z"/>
			<path id="Hair" class="st9" d="M884,172.86c6.96-3.72,8.98-12.13,9.69-19.6c0.77-8.12,0.62-9.57-6.69-15.29
				c-2.82-2.21-9.8-4.57-9.81-4.57c-17.68-5.92-37.67-10.18-56.2-5.09c-17.03,4.68-28.79,18.31-34.63,33.48
				c-2.97,7.71-4.62,16-4.66,24.2c-0.04,9,3.7,18.99-2.62,26.91c2.33,0.17,4.7-0.05,6.94-0.66c-9.7,1.41-24.31,3.81-24.66,15.36
				c-0.15,5.06,3.37,9.47,6.34,13.7c2.97,4.23,5.59,9.51,3.53,14.19c-2.6,5.91-11.63,8.24-12.79,14.55
				c-1.38,7.5,6.19,10.93,9.25,16.77c3.85,7.36,0.16,15.92-0.72,23.55c-0.79,6.77,5.89,9.88,10.25,13.92
				c12.64,11.71,12.48,25.02-1.35,37.96c-0.28,0.26-0.17,0.77,0.03,1.09c0.21,0.34,0.66,0.48,1.07,0.58
				c17.87,4.37,41.09-11.77,45.21-27.86c1.86-7.25-2.88-14.03-0.8-21c2.23-7.49,11.15-10.3,17.09-14.65
				c10.93-7.99,22.62-21.82,21.01-35.65c-0.98-8.42-3.81-17.91-10.02-24.77c-5.43-6.01-21.65-9.29-21.48-18.27
				c0.07-3.97,3.49-7.04,6.07-10.2c6.53-8.01-5.99-14.99,0.19-19.17c3.98-2.69,8.69-4.58,13.53-5.39
				c5.13-0.86,10.36-1.67,14.35-5.05c3.73-3.16,8.88-10.3,14.65-9.82c7.2,0.6,15.47-1.08,19.2-6.86"/>
		</g>
		<path id="Body_1_" class="st12" d="M863.38,362.94c-2.57-22.99,9.32-59.58-5.02-78.25c-1.47-1.91-3.05-3.82-5.18-5.07
			c-26.97-15.82-45.64,8.76-54.26,30.39c-7.47,18.75-6.55,36.01-7.11,55.57c-0.93,32.97-9.14,65.05-19.62,96.39
			c-3.74,11.18-4.73,24.2,5.84,25.9c14.29,2.29,17.37-14.16,31.01-18.41c12.46-3.88,22.52-1.5,36.13-0.8
			c6.75,0.35,28.8-3.8,27.46-15.54c-3.19-27.81-7.97-51.8-8.13-71.17C864.45,375.69,864.09,369.32,863.38,362.94z"/>
		<path id="Arm" class="st8" d="M826.87,302.66c0,0-7.78,33.91-15.97,75.24c-8.19,41.34,3.96,72.52,3.96,72.52
			c1.77,4.56,3.59,9.11,5.57,13.52c3.88,8.69,5.16,14.47,3.65,23.88c-1.27,7.93,1.41,14.92,7.23,20.9
			c4.16,4.27,9.38,7.58,12.98,12.32c0.58,0.76,1.54,1.62,2.41,1.18c0.74-0.37,0.71-1.35,0.58-2.13c-1.18-7.03-2.36-14.06-3.55-21.09
			c-0.23-1.37-0.46-2.79-0.12-4.14c0.34-1.35,1.41-2.63,2.88-2.86c1.76-0.27,3.35,0.98,4.64,2.13c1.96,1.76,3.32,8.17,6.94,5.74
			c1.52-6.16-4.59-17.78-8.37-22.8c-3.72-5.68-10.84-4.54-13.05-10.6c-2.38-6.54-4.75-13.07-7.05-19.63
			c-16.3-65.1,6.68-91.83,6.68-91.83s-5.04-4.21-1.44-36.56C838.46,286.12,826.87,302.66,826.87,302.66z"/>
		<path id="Body" class="st7" d="M845.13,352.35c0,0,18.68-59.78-7.54-58.68s-34.75,70.14-34.75,70.14l43-2.4L845.13,352.35z"/>
	</g>
</g>
</svg>
