<?xml version="1.0" encoding="iso-8859-1"?>
<!-- Generator: Adobe Illustrator 17.1.0, SVG Export Plug-In . SVG Version: 6.00 Build 0)  -->
<!DOCTYPE svg PUBLIC "-//W3C//DTD SVG 1.1//EN" "http://www.w3.org/Graphics/SVG/1.1/DTD/svg11.dtd">
<svg version="1.1" id="Capa_1" xmlns="http://www.w3.org/2000/svg" xmlns:xlink="http://www.w3.org/1999/xlink" x="0px" y="0px"
	 viewBox="0 0 405.125 405.125" style="enable-background:new 0 0 405.125 405.125;" xml:space="preserve">
<path id="XMLID_2165_" d="M74.748,359.701c1.67,1.359,3.68,2.021,5.677,2.021c2.614,0,5.207-1.133,6.985-3.318
	c3.138-3.855,2.557-9.524-1.297-12.662c-26.589-21.646-46.211-49.682-57.394-81.017c33.853,6.851,68.655,11.658,104.063,14.381
	c1.649,16.252,3.83,31.876,6.516,46.576c0.894,4.889,5.581,8.125,10.471,7.236c4.89-0.894,8.129-5.582,7.236-10.471
	c-2.435-13.324-4.442-27.445-6.001-42.126c14.648,0.826,29.395,1.3,44.209,1.417c0.024,0,0.049,0,0.073,0
	c4.938,0,8.959-3.983,8.998-8.929c0.039-4.971-3.958-9.032-8.928-9.071c-15.432-0.122-30.785-0.638-46.027-1.545
	c-1.523-19.276-2.306-39.315-2.306-59.633c0-16.812,0.528-33.313,1.545-49.253c17.733,1.188,35.732,1.783,53.965,1.783
	c18.144,0,36.154-0.604,53.948-1.804c0.839,13.019,1.35,26.396,1.509,39.985c0.058,4.935,4.075,8.895,8.997,8.895
	c0.035,0,0.071,0,0.107,0c4.97-0.058,8.952-4.134,8.894-9.104c-0.163-13.983-0.695-27.761-1.572-41.194
	c20.018-1.819,39.722-4.403,58.996-7.744c4.897-0.849,8.18-5.507,7.331-10.405c-0.849-4.897-5.509-8.183-10.405-7.331
	c-18.722,3.245-37.864,5.759-57.317,7.532c-3.837-42.452-11.185-80.541-21.217-109.276c37.637,10.347,71.232,32.511,96.056,64.186
	c3.067,3.913,8.723,4.598,12.636,1.533c3.912-3.066,4.599-8.723,1.532-12.635C323.328,28.35,265.195,0.03,202.53,0.03
	c-12.235,0-24.228,1.092-35.871,3.181c-0.269,0.037-0.537,0.085-0.801,0.146C99.304,15.581,44.02,60.445,17.292,120.685
	c-0.278,0.498-0.513,1.029-0.696,1.588C5.922,146.901,0,174.055,0,202.56C0,263.754,27.245,321.03,74.748,359.701z M174.181,20.204
	c9.244-1.431,18.71-2.174,28.349-2.174c9.583,0,19.052,0.727,28.338,2.15c11.584,28.006,20.043,68.736,24.226,115.158
	c-17.334,1.166-34.881,1.751-52.563,1.751c-17.771,0-35.318-0.579-52.592-1.731C154.088,88.961,162.508,48.396,174.181,20.204z
	 M153.222,24.719c-10.081,28.824-17.395,66.79-21.204,109.229c-32.429-2.945-63.841-7.952-93.971-14.99
	C61.316,73.367,103.001,38.661,153.222,24.719z M18,202.56c0-23.574,4.446-46.136,12.54-66.88
	c32.056,7.67,65.524,13.088,100.095,16.216c-1.063,16.427-1.614,33.399-1.614,50.664c0,19.84,0.73,39.439,2.156,58.364
	c-36.914-2.966-73.126-8.245-108.244-15.794C19.681,231.339,18,217.071,18,202.56z M333.073,20.575
	c14.828-3.346,34.778-5.055,45.639,5.805c12.694,12.694,10.788,41.247-5.229,78.339c-16.413,38.005-46.17,82.084-84.211,124.859
	c-6.831-5.014-15.256-7.978-24.359-7.978c-22.748,0-41.255,18.507-41.255,41.255s18.507,41.255,41.255,41.255
	s41.255-18.507,41.255-41.255c0-7.093-1.8-13.775-4.967-19.611c40.014-44.709,71.436-91.164,88.807-131.389
	c19.659-45.524,20.154-79.483,1.433-98.204c-9.192-9.193-27.469-18.5-62.327-10.635c-4.849,1.094-7.893,5.912-6.799,10.76
	S328.226,21.671,333.073,20.575z M264.912,286.11c-12.823,0-23.255-10.432-23.255-23.255c0-12.823,10.432-23.255,23.255-23.255
	s23.255,10.432,23.255,23.255C288.167,275.678,277.735,286.11,264.912,286.11z M222.794,318.813
	c-42.391,35.094-85.686,61.962-121.911,75.657c-18.747,7.087-35.339,10.625-49.433,10.625c-15.981,0-28.751-4.547-37.829-13.625
	c-9.15-9.15-18.437-27.327-10.718-61.957c1.082-4.851,5.893-7.908,10.743-6.826c4.852,1.081,7.908,5.891,6.827,10.742
	c-3.279,14.711-4.921,34.514,5.877,45.313c11.539,11.54,35.749,11.146,68.168-1.11c34.417-13.01,75.896-38.824,116.797-72.685
	c3.828-3.169,9.502-2.635,12.672,1.193C227.157,309.969,226.623,315.643,222.794,318.813z M401.011,162.077
	c2.688,13.254,4.052,26.875,4.052,40.483c0,17.988-2.358,35.44-6.78,52.055c-0.064,0.303-0.145,0.601-0.239,0.894
	c-20.211,74.539-82.022,132.154-158.854,146.259c-0.256,0.058-0.514,0.105-0.774,0.141c-11.649,2.091-23.642,3.183-35.884,3.183
	c-14.745,0-29.467-1.595-43.756-4.741c-4.854-1.069-7.923-5.871-6.854-10.725c1.068-4.855,5.873-7.924,10.725-6.854
	c13.021,2.867,26.44,4.32,39.886,4.32c9.639,0,19.102-0.742,28.345-2.173c6.084-14.753,11.507-33.671,15.776-55.094
	c0.972-4.874,5.711-8.038,10.585-7.067c4.875,0.971,8.039,5.71,7.067,10.585c-3.527,17.7-7.7,33.454-12.461,47.061
	c57.831-16.055,104.33-59.627,124.442-115.667c-13.938,2.818-28.1,5.303-42.275,7.417c-4.92,0.731-9.495-2.658-10.229-7.575
	c-0.733-4.916,2.658-9.496,7.574-10.229c17.068-2.545,34.113-5.64,50.75-9.213c3.242-13.673,4.957-27.925,4.957-42.575
	c0-12.41-1.242-24.826-3.692-36.905c-0.988-4.871,2.16-9.621,7.031-10.609C395.27,154.059,400.023,157.205,401.011,162.077z"/>
<g>
</g>
<g>
</g>
<g>
</g>
<g>
</g>
<g>
</g>
<g>
</g>
<g>
</g>
<g>
</g>
<g>
</g>
<g>
</g>
<g>
</g>
<g>
</g>
<g>
</g>
<g>
</g>
<g>
</g>
</svg>
