<svg xmlns="http://www.w3.org/2000/svg" viewBox="0 0 391.37 919.57"><defs><style>.cls-1{fill:#f9c4bd;}.cls-2{fill:#d5e2f7;}.cls-3{fill:#471e1c;}.cls-4{fill:#1b2633;}.cls-5{fill:#929bdd;}.cls-6{fill:#292688;}.cls-7{fill:#5158a6;}.cls-8{fill:#121921;}.cls-9{fill:#6669b9;}.cls-10{fill:#ffc4e7;}.cls-11{fill:#ffaba3;}.cls-12{fill:#3741a0;}.cls-13{fill:#eef5ff;}.cls-14{fill:#e0ecff;}.cls-15{fill:#f5f9ff;}.cls-16{fill:#ffcbc2;}.cls-17{fill:#1d3867;}.cls-18{fill:#061c3b;}.cls-19{fill:#2e1212;}</style></defs><title>dr</title><g id="Capa_2" data-name="Capa 2"><g id="Layer_3" data-name="Layer 3"><path class="cls-1" d="M104.56,314.66a6.49,6.49,0,0,0-.23-.73c-.21-.6-.52-1.33-.89-2.16h0c-.71-1.57-1.68-3.56-2.88-5.86-.52-1-1.07-2.06-1.66-3.18,0-.08-.09-.15-.13-.23a.18.18,0,0,0,0-.07c-.3-.53-.62-1.08-.92-1.65s-.8-1.45-1.21-2.21c-.07-.11-.16-.28-.23-.37C89.4,285.6,78.9,268,68.57,250.83c-5.06-8.41-10.14-16.7-14.74-24.22h0a1,1,0,0,0-.09-.16l-1.42-2.31-.16-.25-.07-.11c-4.28-7-8.09-13.17-11.08-18-.16-.27-.33-.54-.49-.8l-.19-.3c-.1-.17-.24-.34-.33-.51a4.74,4.74,0,0,0-.31-.46l-.2-.33c-.76-1.22-1.46-2.35-2-3.33-.07-.3-.15-.61-.2-.9,0,0,0,0,0,0a85,85,0,0,0-6.11-8.52c-7.26,1-12,2.14-14.88,3.23s-4.2,2.3-4.27,3.37c-.2,3.36,9.87,12.05,10.75,13.28.1.13.19.23.26.34l.36.5,0,0,.49.66c1,1.42,2,2.74,2.84,4,.12.19.23.32.36.5s.22.33.34.5c.76,1.16,1.51,2.26,2.22,3.32,8.62,33.62,17.49,59.6,23.62,74.23A210.31,210.31,0,0,0,67,322.23c3.06,5.14,5.81,9.23,7.66,11.89-1.34-3.49-2.78-7.35-2.54-7.46,0,0,.05,0,.1.06.54.33,1.1.64,1.69.94a23.66,23.66,0,0,0,6.74.61c.4,0,.8,0,1.21-.07a30.28,30.28,0,0,0,11.1-3.28c.42-.22.85-.44,1.26-.69l.08,0a36,36,0,0,0,6.68-5h0a8.31,8.31,0,0,0,.78-.71,24.3,24.3,0,0,0,1.74-1.81c.31-.5.57-1,.84-1.55a1.13,1.13,0,0,1,.06-.15Z"/><path class="cls-1" d="M39.51,204.46c-.06-.3-.11-.6-.18-.93-.39-2-.95-4.53-1.79-7.41,0,0,0,0,0,0A85,85,0,0,0,34,186.24c0-.1-.09-.19-.13-.3-1.2-2.76-13.81-31.21-26.2-29.46A8.8,8.8,0,0,0,2.8,159c-7.32,7.42,1.44,26.66,6.46,35.16a66.37,66.37,0,0,0,13.9,16.48c.63.56,1.3,1.11,2,1.67Z"/><path class="cls-2" d="M218.14,159.33c-10.94-.87-28.33-.66-46.47,7.49-1.35.61-2.81,1.3-4.4,2.18-16,8.83-31.45,24.25-48.13,50.39a332,332,0,0,0-30.22,60.18L46.58,205.17,18.05,219.64,66.58,327.79a20.35,20.35,0,0,0,31.85,7.11c8.43-7.27,17.34-15.55,26.42-24.93a417.07,417.07,0,0,0,44-54.09A425.09,425.09,0,0,0,218.14,159.33Z"/><path class="cls-3" d="M245.87,8.88c-15.57-2.35-38.64,38.22-45.86,72-6.23,29.14,3.26,35.89-3.68,65-10.61,44.6-38.72,59.47-32,72.5,7.43,14.4,51.86,16.46,79.36-3.84C305.92,168.64,274.68,13.22,245.87,8.88Z"/><path class="cls-1" d="M191.12,200.46c-2.33-3.25,10.53-17.8,11.8-19.27a68,68,0,0,1,5.09-5.26,55.94,55.94,0,0,0,6.89-17.53c4.25-20.62-4.67-37.55-7.8-42.91,1.14.76,17.14,11.1,34.14,3.45,11.6-5.21,16.39-15.51,17.56-18.24a138.41,138.41,0,0,1,1.61,14.19,156.67,156.67,0,0,1-.48,23.3c-.53,8.3.09,20.47,5.57,36.6l.59,16a57.06,57.06,0,0,0-32.73-4.64,55.13,55.13,0,0,0-17.88,6.24C205.77,197.43,193.1,203.22,191.12,200.46Z"/><path class="cls-1" d="M256.26,667.85c3.89,4.22,8.11,8.83,13,14.49,15.5,18.09,24.67,31.55,44,59,5.73,8.15,14.86,21.12,26.4,37.41l15.85,15.8,7.9,8.12a35.56,35.56,0,0,1-15,31.11L176.27,687.54l-6-10.57c-5.59-16.25-3.28-32,5.88-39.58,9-7.43,21.72-4.76,29.93-2.93C228.67,639.51,243.6,654.13,256.26,667.85Z"/><path class="cls-4" d="M360.88,918.23l1.18.15c2.13.26,4.27.51,6.4.79,1.63-3.6,4-9,6.33-15.75,2.52-7.13,6.71-20.16,11.19-49.44l.25-1.69c1.73-11.52,3.68-26.7,5.09-44.77-2.69-1.07-5.38-2.16-8.07-3.22L380.1,803l-3.36-1.35v0q-2.93,21.46-5.84,42.88Q365.89,881.42,360.88,918.23Z"/><path class="cls-5" d="M346.2,849c.5,27.28,4.69,70,14.32,69.77a3.46,3.46,0,0,0,1.54-.4c5.62-2.78,12.53-21.09,20.16-78.73,1.34-10.11,2.71-21.42,4.09-34.08-1-.42-2-.86-3.06-1.28L380.1,803c-1.1-.44-2.23-.88-3.36-1.3l-3.17-1.17c-6.3-2.27-12.35-4.17-18.07-5.76-.54,11.76-1.91,17.49-3.2,20.51-.21.52-2.23,5.21-5,11.95v0C346.37,829.4,346,837.93,346.2,849Z"/><path class="cls-5" d="M346.16,832l-5.89-4.81,8.48-39.27,6.57,6.46Z"/><path class="cls-5" d="M356.92,874q8.21.54,19.39-41.29c-1.66-4.19-3.59-8.56-5.82-13.05a168,168,0,0,0-15.58-25.36c15.24,4.28,19.47,5.86,19.47,5.86A107.72,107.72,0,0,1,387,805.81l-3.46,38.49c.9,3.28,1.74,6.51,2.46,9.67-4.48,29.28-8.66,42.31-11.19,49.44-2.38,6.73-4.7,12.15-6.33,15.75-2.13-.27-4.26-.53-6.4-.79a3.46,3.46,0,0,1-1.54.4c-9.63.18-13.81-42.49-14.32-69.77Q350.71,873.57,356.92,874Z"/><path class="cls-5" d="M348.8,788l-18.58,30.48-4.69-3.95,18-31.86Z"/><path class="cls-6" d="M391.24,807.5l-4.34-1.69a352.68,352.68,0,0,1-5.45,49.88A353.4,353.4,0,0,1,364,918.36l4.29.94a244.71,244.71,0,0,0,23-111.8Z"/><path class="cls-7" d="M240,650.32c3.25,2.45,8.11,6.22,13.77,11.06,12.41,10.62,27.69,25.56,55.93,63.48,9.95,13.36,22.61,31.06,36.62,52.57l-28.7,35.33L164.29,680l-21-202.22,112.11-14.33a87.2,87.2,0,0,1,18.54,22.76C310.76,551.89,244.79,643.8,240,650.32Z"/><path class="cls-1" d="M215.95,809.56c-5.1,3.48,1.34,30.6.25,37.74-.25,1.66-.52,3.32-.76,5-.22,1.5-.45,3-.67,4.48-.18,1.19-.3,2.06-.34,2.32-.25,1.72-.77,5.21-1.95,12.92a22.64,22.64,0,0,0,11.92,8.83c8.68,2.53,18.59-.92,25.38-8.73l1.72-10.51a24.78,24.78,0,0,0,2-6.64C257,830.68,222.32,805.22,215.95,809.56Z"/><path class="cls-5" d="M212.48,871.56l.63-4.11L252,861.53l-1.57,9.62Z"/><path class="cls-5" d="M215.44,852.28c-.22,1.5-.45,3-.67,4.48l-.34,2.32,37.08,2.5h0l.35,0s0-.06,0-.08c.55-2.2,1.1-4.36,1.64-6.56h-.1Z"/><path class="cls-8" d="M132.46,908c.05.39.09.8.14,1.19.27,2.14.54,4.29.79,6.44,3.86.68,9.64,1.56,16.7,2.18,7.48.65,21,1.43,50.32-1.63l1.69-.18c11.51-1.23,26.6-3.18,44.34-6.38.38-2.89.78-5.79,1.15-8.68.15-1.12.31-2.24.46-3.39s.32-2.41.49-3.62h0l-42.7,5.17Z"/><path class="cls-5" d="M195.56,876.11c-26.15,7.4-66.22,22.3-63.72,31.64a3.47,3.47,0,0,0,.76,1.4c4,4.78,23.34,6.87,80.69-.3,10.06-1.25,21.28-2.79,33.8-4.65.16-1.09.34-2.18.49-3.3s.31-2.24.46-3.39.31-2.39.44-3.61.24-2.24.36-3.39c.66-6.72,1-13.1,1.17-19.08-11.46,2.46-17.31,2.57-20.52,2.08-.55-.08-5.56-.86-12.72-1.88h0C214.48,871.31,206.16,873.08,195.56,876.11Z"/><path class="cls-5" d="M247,904.91a110.36,110.36,0,0,0,2.41-13.7s.5-4.53.93-20.47h0a169.86,169.86,0,0,1-49.27,41.91Z"/><path class="cls-5" d="M195.56,876.11c-26.15,7.4-66.22,22.3-63.72,31.64a3.47,3.47,0,0,0,.76,1.4c.27,2.14.54,4.29.79,6.44,3.86.68,9.64,1.56,16.7,2.18,7.48.65,21,1.43,50.32-1.63q6.31-3.32,12.88-7.29c3.88-2.32,7.83-4.84,11.81-7.52q-49.42.3-51-8.44Q173,886.74,195.56,876.11Z"/><path class="cls-6" d="M246.43,909.5l.58-4.66A345.93,345.93,0,0,1,133.08,911l.14,4.42a240,240,0,0,0,113.22-5.93Z"/><path class="cls-9" d="M309.2,474c6.69,13.73,9.37,31.75-17.35,134.22-8.28,31.76-15.8,57.85-21.09,75.68l-6.08,174.86-53.66.21L181.13,701.18l42.48-278C287.15,435.06,304.45,464.21,309.2,474Z"/><path class="cls-1" d="M153.81,412.09c4.12.61,8.36,1.2,12.72,1.72,13.27,1.63,27.6,2.81,42.89,3.27,13.09.39,25.55.22,37.31-.36,11.42-.57,22.17-1.52,32.2-2.7-.23-1.41-.45-2.78-.69-4.12-.06-.37-.12-.74-.19-1.11s-.11-.59-.17-.9c-.1-.64-.22-1.27-.33-1.88-.28-1.55-.56-3.06-.83-4.54-.17-.89-.33-1.77-.49-2.64a261.36,261.36,0,0,1-4.1-27.75,151.19,151.19,0,0,1-.29-18.3A183.36,183.36,0,0,1,277.21,316q1.88-10.35,4.13-20.1a505.58,505.58,0,0,1,20.5-68.28,72,72,0,0,0-.86-9c-.07-.48-.16-1-.25-1.47q-.18-1-.41-2.09c-.12-.6-.27-1.22-.42-1.84l-.19-.77c-.06-.27-.14-.54-.22-.82s-.15-.55-.23-.82-.08-.31-.13-.47-.09-.31-.15-.46l-.55-1.78c-.22-.67-.45-1.36-.71-2.06-.1-.27-.2-.54-.3-.81-.33-.87-.69-1.77-1.07-2.67l-.21-.5c-.15-.33-.3-.66-.45-1h0c-.75-1.66-1.54-3.23-2.36-4.72s-1.66-2.88-2.5-4.18A68.24,68.24,0,0,0,285,184.4c-.52-.6-1-1.17-1.52-1.69l-.72-.77h0l-4.36-2.47L274,177,265.28,172l-.5.56-.61.66v0c-.38.39-.75.78-1.13,1.14-.56.55-1.12,1.07-1.67,1.56-.33.29-.65.55-1,.82l-.89.72c-.46.36-.92.71-1.37,1h0c-.52.37-1,.71-1.53,1a.09.09,0,0,0-.06,0l-.06.05-.12.07-.08,0-.13.09c-.28.17-.67.41-1.12.67l-.36.2-.11.06-.49.26-.19.1-.18.09c-.91.48-1.71.85-2.42,1.16l-.94.41c-1,.39-1.92.73-2.87,1-.51.17-1,.3-1.5.43h-.1l0,0-.26.06c-.63.15-1.23.29-1.86.41-19.82,3.7-26.95-3.72-26.95-3.72a19.37,19.37,0,0,1-2.63-4.15,20.31,20.31,0,0,1-1.68-10.85l-10.73,4.24a43,43,0,0,0-12.06,6.49c-12,9.27-18.53,25-22.22,31.19-.07.11-.46.74-.93,1.61-.3.56-.62,1.1-.92,1.68-.2.37-.38.73-.56,1.09l-.26.53q-.2.39-.38.77l-.35.75-.22.5c-.08.16-.15.32-.22.48l-.39.89c-.06.12-.1.24-.15.35l0,.1c-.06.15-.12.3-.19.45s-.23.6-.34.89-.23.59-.33.88l-.08.2a3.54,3.54,0,0,0-.12.36c-.13.33-.24.66-.35,1s-.18.58-.28.85c0,.08-.05.15-.07.23s-.14.41-.2.62l0,.17c-.15.5-.29,1-.42,1.48s-.19.69-.27,1c-2.19,9-1.8,18.12-1,32.52.3,5.31.66,11.36,1,18.39.1,2.23.41,10.06.53,21.17v.05c0,3.51.06,7.36,0,11.46,0,1,0,2,0,3q.24,9.65.11,19.81a525.66,525.66,0,0,1-7.11,79.3l.13,0Z"/><path class="cls-10" d="M144.89,511c12.42,12,27.14,3.8,87,2.54,53.16-1.12,75,4.61,85.69-10.08,7.29-10,4.66-22.92,2.08-36C294,337.14,293.07,291.61,296.59,259.93a259.25,259.25,0,0,1,6.94-37.15,72,72,0,0,0-.9-9.31c-.07-.5-.16-1-.26-1.52-.13-.7-.27-1.43-.43-2.16s-.28-1.26-.44-1.91l-.2-.79c-.07-.28-.14-.56-.23-.85s-.15-.57-.24-.85-.09-.32-.13-.49c-.22-.76-.46-1.54-.72-2.32s-.47-1.41-.74-2.13c-.1-.28-.2-.56-.31-.84-.34-.91-.71-1.83-1.11-2.77-.22-.52-.45-1-.69-1.56-.78-1.73-1.6-3.35-2.45-4.89s-1.71-3-2.59-4.33a70.82,70.82,0,0,0-6-8c-.54-.63-1.07-1.21-1.58-1.75l-.75-.79-4.53-2.57-4.52-2.56-9.05-5.13h0a136.23,136.23,0,0,1-33.91,10c-7,1.09-26.23,4.07-28.68-1.72-.82-1.93.42-4.36,1.79-6.29l-1.09.54-.36.19c-17.26,9.12-20.88,11.85-20.88,11.85s-9.78,7.36-19.27,24.43c-.48.87-.94,1.75-.94,1.75-.2.38-.39.76-.58,1.13l-.27.55q-.21.4-.39.8l-.37.78-.23.51c-.09.17-.16.33-.22.5l-.4.93c-.06.12-.11.25-.15.36l0,.1-.19.47c-.13.31-.24.62-.36.92s-.24.61-.35.91l-.08.21a3.62,3.62,0,0,0-.13.37c-.14.35-.24.68-.36,1s-.19.6-.29.88c0,.08-.05.16-.08.24-.24.77-.47,1.56-.69,2.36,0,0-.14.5-.28,1.08-.76,3-12.7,184.35-15.4,219.08C137.9,484.23,133.13,499.69,144.89,511Z"/><path class="cls-11" d="M347.3,379.75a16.46,16.46,0,0,0-.14-2.26c0-.08,0-.11,0-.19,0-.28,0-.57-.06-.87-.08-1.13-.16-2.25-.25-3.38q-.54-7.31-1.15-14.42-.31-3.91-.63-7.78c-1-10.93-2.05-21.52-3.29-31.63-.18-1.67-.37-3.27-.56-4.89-.36-2.9-.74-5.75-1.11-8.58v0c-.53-3.95-1.11-7.79-1.68-11.56-.2-1.26-.38-2.5-.59-3.74-.24-1.52-.48-3-.73-4.47s-.51-3-.76-4.4c-.13-.72-.27-1.41-.38-2.1-.26-1.4-.51-2.77-.75-4.13-.13-.68-.24-1.36-.36-2-.59-3-1.21-5.93-1.84-8.79q-1.54-7.14-3.27-13.65-1.31-5-2.74-9.67c-.7-2.31-1.42-4.56-2.19-6.71-.48-1.46-1-2.86-1.5-4.21s-1-2.67-1.55-4c-.27-.66-.55-1.31-.83-1.93-.79-1.9-1.63-3.69-2.48-5.38-4.83-9.71-10.34-16.64-16.57-20.29a20.93,20.93,0,0,0-5.8-2.4,4.82,4.82,0,0,0-.47-.13,10.88,10.88,0,0,0-1.35-.24,17,17,0,0,0-3.11-.06,13.93,13.93,0,0,0-2.93.58,3.19,3.19,0,0,1-.44.14,4.33,4.33,0,0,1-.44.14c-.3.12-.58.23-.86.37a16.66,16.66,0,0,0-2.46,1.38h0c-.44.28-.81.58-1.23.89a24,24,0,0,0-3.67,3.74c-.36.46-.74,1-1.1,1.47a.49.49,0,0,1-.08.13.74.74,0,0,0-.1.15,5.58,5.58,0,0,0-.33.52c-.23.37-.48.75-.69,1.16s-.63,1.15-.94,1.75a33.54,33.54,0,0,0-2,5.08c-.3.92-.54,1.83-.76,2.79a41.81,41.81,0,0,0-1,6.41c-.09,1.07-.14,2.18-.14,3.28,0,1.3,0,2.62.15,3.94a45.23,45.23,0,0,0,1.31,8v0L287.68,296l1.05,4.33,1.25,5.16.54,2.19,1.27,5.06,3.65,14.93v0l4.64,18.9,7.23,29.52L310,387.3s0,.07,0,.07l.1.36.06.21,5.53,12.63a24.5,24.5,0,0,0,16.07-.15C340.61,397.09,347.23,388.18,347.3,379.75Z"/><path class="cls-12" d="M273.59,172.36a136.41,136.41,0,0,1,2.14,31.51c0,1-2.09.68-2-.34a134.6,134.6,0,0,0-2.13-31.11c-.2-1.06,1.86-1,2-.07Z"/><path class="cls-13" d="M271.56,207.29,301,367.08,348.68,379,331.19,184.24c-2.68-2.06-13.2-9.63-27-7.95C288.93,178.14,275.86,190.44,271.56,207.29Z"/><path class="cls-14" d="M259.11,159.33a67.61,67.61,0,0,0-28.62,19.08A1485.82,1485.82,0,0,0,226.25,365c2.15,52.07,6.16,80.13,9.54,150.52,2.95,61.43,3.31,111.33,3.18,143.1L341.79,692.5c.41-96.23-9-172.69-18-225.77-8.17-48.15-15.8-72.87-22.26-123a912.31,912.31,0,0,1-4.9-186.16A67.79,67.79,0,0,0,259.11,159.33Z"/><path class="cls-14" d="M130.06,675.54l31-26.23L177.8,239.87l1.81-44.5q7.92-8.23,13.94-14.64c4.93-5.26,8.92-9.6,11.92-13,1.78-2,3.23-3.74,4.32-5.1L207,161.52Q194.7,170.72,155.23,206c-.14,1.7-.3,3.39-.43,5.09q-.52,5.84-1,11.69-1.6,18.75-3.08,37.65-4.84,60.84-8.71,123.38Q132.7,534,130.06,675.54Z"/><path class="cls-15" d="M238.17,169.93a44.17,44.17,0,0,0-9.54,9.94q-2,37.25-2.78,76.72-1,52.1.4,100.56l29-114.48-18.68-13.51,20.27-9.94,11.53-58.43C263.27,160.63,250.07,160.93,238.17,169.93Z"/><path class="cls-15" d="M143.11,230.48l7.58,29.92Q161.4,302.68,172.13,345l5.68-105.08,2.34-43.44q6.7-7.87,13.42-15.71,5.22-6.13,10.48-12.27l1.45-.75,7.52-3.86-3.2-1.24L207,161.52q-14.5-5.63-29-11.19-15.91,26.76-31.8,53.52l8.57,7.22c2.32,2,4.66,3.93,7,5.9q-4,2.91-8,5.79C150.22,225.34,146.66,227.9,143.11,230.48Z"/><path class="cls-3" d="M254.79,11.91c.48-2-3.6-4.7-5.22-5.67-13.18-7.92-38.08-9.89-54.68,3.59C172.42,28.08,175,66.65,175.48,74.3c.17,2.56.78,12.5.78,26.26,0,4-.15,8.5-.57,14.15-.7,9.32-1.63,25.67-4.4,36.57a46.46,46.46,0,0,1-4,10.58c-7.45,14-14.13,19.17-18.31,25.7-12.43,19.43,4.42,54.62,9.62,54,4.06-.48-1.53-22.42,12.57-43.22,8.63-12.72,15.47-11.51,23.37-20.23,29.44-32.5-7.69-113.34,13.5-146.79a34,34,0,0,1,8-9.34C231.56,9.87,253.71,16.5,254.79,11.91Z"/><path class="cls-16" d="M187.61,65.18c-3.21,6.27-5.91,9.12-7.87,10.54-.39.28-1.68,1.19-3.37,2.61a55,55,0,0,0-4.14,3.84,46.11,46.11,0,0,0,13,10.08Z"/><path class="cls-16" d="M285.16,92.87c-8.43,25.93-35.62,35.87-39.84,37.34A110.24,110.24,0,0,1,208,129.11a108.57,108.57,0,0,1-15.24-4.29c-3.64-7.54-13.2-29.84-6.54-56.14,6.21-24.51,27.24-55.43,53.13-54.24C269,15.81,296.21,58.88,285.16,92.87Z"/><path class="cls-3" d="M220.55,41c-4.53-3.64-7.85-5.52-11.76-5.29-10.5.61-16.5,16.19-17.1,17.81-1.52-4.18-4.45-14.21-.72-25.41,5.25-15.72,21-25.82,36.29-26.23a39.18,39.18,0,0,1,19.78,5,39,39,0,0,1,23.77,3.47c12.38,6.33,17.55,19,19.82,24.64,56.52,141.61,84.78,212.42,56.45,237.24-14.37,12.58-35.88,11.54-48.52,7.51-37.31-11.89-63.89-70.91-56.66-117,3-19,12.38-40.26,7.52-74.17a144.34,144.34,0,0,0-4.23-19.65A111.2,111.2,0,0,0,220.55,41Z"/><path class="cls-3" d="M255.44,12.63l.61,1.54.48,1.17c1.31,3.14,2.48,6.07,2.78,6.52,3.78,5.63,10.35,10.91,14.84,20.52,3.68,7.87,4.2,14.62,4.5,20.18,1.38,26,15.92,49.09,21.56,81.24,9.94,56.64-16.87,89.36,2.46,106.59,6.83,6.09,15.79,7,21.25,7,7.49-10.83,17-22.28,23.13-20.18,5.34,1.82,4.75,12.58,6.45,12.59,4.12,0,21.84-62.5-5.26-120.66a148.48,148.48,0,0,0-21.91-33.91c-7.68-18.43-15-33.47-20.67-44.52C293.43,27,288.52,21.3,282.62,17,269.47,7.3,254.39,6.37,245.53,6.68,252.77,10.22,255.15,11.87,255.44,12.63Z"/><path class="cls-16" d="M261.45,79.53c-1.92,6.68-7.29,11-12,9.59s-7-7.92-5.05-14.6,7.29-11,12-9.59S263.37,72.85,261.45,79.53Z"/><path class="cls-17" d="M249.07,84.15c-.05,2.92,1.75,5.33,4,5.38s4.16-2.29,4.21-5.21-1.75-5.33-4-5.38S249.12,81.23,249.07,84.15Z"/><path class="cls-18" d="M250.19,84.18c0,2.13,1.27,3.88,2.93,3.91s3-1.67,3.06-3.8-1.27-3.88-2.93-3.91S250.23,82,250.19,84.18Z"/><path class="cls-19" d="M246.5,18.91c2.45,26.34,30.75,35.74,45,54.35,13.57,17.71,11,41.06,16.74,61.53,3.2,11.36,10.11,19.89,16.13,29.79s8,21,9.64,32.23c3.08,21.57-4.56,46.54-18.16,63.43-.39.49-2.34-.06-1.93-.56,7.52-9.35,12.13-20.34,15.39-31.84,3.79-13.35,3.82-25.56,1.32-39.19-2.24-12.25-6.32-21.43-13.27-31.7-6.17-9.11-10.52-18.11-12.72-29-2.16-10.61-2.78-21.48-5.15-32.05A57.38,57.38,0,0,0,282,65.17c-14.67-13.55-35.49-24.39-37.55-46.6,0-.52,2-.37,2,.34Z"/><path class="cls-19" d="M266.13,88a53.79,53.79,0,0,1,17.2,33.14c.79,6.59-.08,12.81-1.21,19.29-1.16,6.66-1.11,10.76,3.46,16.26,2,2.36,4.31,4.37,6.23,6.8,17.64,22.39,16.6,54.06-1.28,75.82-.54.66-2.51,0-1.92-.67,19.47-23.69,18-57.27-2.91-79.56-3.53-3.76-6.23-6.66-6.38-12.17-.17-6.24,2.18-12.33,2.32-18.6a52.48,52.48,0,0,0-17.11-39.62c-.92-.84,1-1.26,1.59-.69Z"/><path class="cls-19" d="M249.13,6.78c17.11,4.57,34.16,11.93,47,24.59a61.66,61.66,0,0,1,14.71,22.91c3.53,9.72,5.13,20.09,9.26,29.61,5.05,11.64,14.7,16.66,23.49,24.89,7.61,7.13,13.13,16.21,17.3,25.74a131.59,131.59,0,0,1,10.31,60.19,134.79,134.79,0,0,1-21.71,65.74c-.3.46-2.27,0-1.94-.53,22.14-33.84,28-77.58,15-116.1-3.18-9.36-7.38-18.51-13.27-26.47C342.29,108,332,103.13,324.57,94.47c-11.93-13.91-11.21-34.17-20-49.74-11.64-20.5-34.26-31.48-56.06-37.3-1.37-.37-.18-.88.66-.65Z"/><path class="cls-19" d="M187.54,129.28c3,15.54,4.61,30.7-6.38,43.46-5.84,6.78-13.22,12.15-17.75,20A42,42,0,0,0,159,222.43c.22,1.07-1.84,1-2,.08-3.38-16.32,2.47-30.55,13.88-42,6.76-6.8,13.89-13.19,16.18-23,2.17-9.26.23-19-1.56-28.17-.21-1.08,1.85-1,2-.08Z"/><path class="cls-1" d="M332.88,399.91a6.7,6.7,0,0,1-.66.4c-.55.31-1.26.66-2.09,1h0c-1.57.72-3.61,1.58-6,2.53l-3.34,1.31-.25.09-.07,0c-.57.21-1.18.41-1.78.64-.77.27-1.56.57-2.37.87l-.42.13c-13.55,4.95-33.06,11.36-52.12,17.5-9.35,3-18.62,5.94-27,8.59h0l-.17.06-2.59.81-.28.08-.13,0c-7.8,2.44-14.76,4.62-20.19,6.3l-.9.28-.34.1c-.19.06-.4.1-.59.17a4.63,4.63,0,0,1-.53.14l-.36.12c-1.37.43-2.65.82-3.74,1.17-.25.18-.51.36-.74.55,0,0,0,0,0,0a84.94,84.94,0,0,1-10.2,2.41c-4.71-5.56-7.47-9.5-8.93-12.25s-1.59-4.51-.94-5.36c2.08-2.67,15.34-2.6,16.81-2.95.16,0,.29,0,.42-.09l.6-.13h.05l.8-.17c1.71-.4,3.29-.76,4.77-1.15.22-.06.39-.09.6-.14l.58-.15c1.33-.38,2.62-.72,3.85-1,28.73-19.73,52.58-33.52,66.85-40.54,5.92-2.91,9.23-3.55,17.71-7.93A48.39,48.39,0,0,1,310,368.91a43.85,43.85,0,0,1,8.47-1.34c1.23,1.49,3.13,3.69,5.69,6.28.68.68.55.53.85.85a30,30,0,0,1,6.08,9.8c.17.44.34.9.48,1.35a.29.29,0,0,1,0,.08,36,36,0,0,1,1.68,8.15l0,0a8.29,8.29,0,0,1,.11,1,24.5,24.5,0,0,1,.09,2.52c-.1.58-.25,1.15-.4,1.72Z"/><path class="cls-1" d="M214.21,440l-.88.36c-1.91.78-4.33,1.67-7.2,2.52,0,0,0,0,0,0a85,85,0,0,1-10.2,2.41l-.32.05c-3,.49-33.66,5.37-38.78-6a8.85,8.85,0,0,1-.5-5.46c2.37-10.21,23.25-13.31,33.08-13.71a65.51,65.51,0,0,1,21.29,2.74c.81.23,1.63.49,2.47.77Q213.68,431.78,214.21,440Z"/><path class="cls-13" d="M216.18,416.64l9.8,30.47,117.13-47.43a36.47,36.47,0,0,0,5.56-17,35.3,35.3,0,0,0-.53-8.74,30.83,30.83,0,0,0-10.33-11.39c-14.64-9.45-32-1.81-33.65-1.06Z"/></g></g></svg>